<svg width="220" height="250" viewBox="0 0 220 250" fill="none" xmlns="http://www.w3.org/2000/svg">
<path d="M210.869 55.9742L121.006 57.4644L122.082 122.339L211.945 120.849L210.869 55.9742Z" fill="#1D7185"/>
<path opacity="0.3" d="M175.248 56.557L120.918 57.4579L121.994 122.332L176.324 121.431L175.248 56.557Z" fill="white"/>
<path opacity="0.3" d="M183.435 60.9283L167.789 61.2413L167.876 65.6026L183.523 65.2897L183.435 60.9283Z" fill="white"/>
<path opacity="0.3" d="M183.9 111.375L168.256 111.635L168.328 115.996L183.972 115.736L183.9 111.375Z" fill="white"/>
<path d="M194.33 97.5C199.401 97.5 203.512 92.8485 203.512 87.1106C203.512 81.3727 199.401 76.7212 194.33 76.7212C189.259 76.7212 185.148 81.3727 185.148 87.1106C185.148 92.8485 189.259 97.5 194.33 97.5Z" stroke="white" stroke-miterlimit="10"/>
<path d="M194.712 78.3021V80.0467" stroke="white" stroke-linecap="round" stroke-linejoin="round"/>
<path d="M195.109 94.2834V96.028" stroke="white" stroke-linecap="round" stroke-linejoin="round"/>
<path d="M186.589 86.7679H188.341" stroke="white" stroke-linecap="round" stroke-linejoin="round"/>
<path d="M200.654 86.7757H202.407" stroke="white" stroke-linecap="round" stroke-linejoin="round"/>
<path d="M194.704 86.7679L194.712 81.394" stroke="white" stroke-width="0.5" stroke-linecap="round" stroke-linejoin="round"/>
<path d="M195.047 87.1183L198.847 90.919" stroke="white" stroke-width="0.5" stroke-linecap="round" stroke-linejoin="round"/>
<path d="M195.553 86.7757C195.553 86.9436 195.503 87.1077 195.41 87.2473C195.317 87.3869 195.184 87.4957 195.029 87.56C194.874 87.6242 194.703 87.6411 194.538 87.6083C194.374 87.5755 194.222 87.4947 194.104 87.376C193.985 87.2573 193.904 87.106 193.871 86.9413C193.839 86.7766 193.856 86.606 193.92 86.4508C193.984 86.2957 194.093 86.1631 194.232 86.0699C194.372 85.9766 194.536 85.9268 194.704 85.9268C194.816 85.9258 194.927 85.947 195.03 85.9893C195.134 86.0316 195.228 86.0941 195.307 86.1731C195.386 86.2521 195.448 86.3461 195.49 86.4496C195.533 86.5531 195.554 86.6639 195.553 86.7757Z" fill="white"/>
<path opacity="0.3" d="M194.33 100.249C201.044 100.249 206.488 94.3668 206.488 87.1106C206.488 79.8543 201.044 73.9719 194.33 73.9719C187.616 73.9719 182.173 79.8543 182.173 87.1106C182.173 94.3668 187.616 100.249 194.33 100.249Z" fill="white"/>
<path d="M93.3645 201.051C94.7196 202.087 121.924 199.159 114.891 150.896C114.891 150.896 127.796 154.174 129.182 153.956C129.182 153.956 148.115 182.983 134.33 197.36C120.545 211.737 100 212.617 100 212.617L93.3645 201.051Z" fill="#1D7185"/>
<path opacity="0.3" d="M93.3645 201.051C94.7196 202.087 121.924 199.159 114.891 150.896C114.891 150.896 127.796 154.174 129.182 153.956C129.182 153.956 148.115 182.983 134.33 197.36C120.545 211.737 100 212.617 100 212.617L93.3645 201.051Z" fill="black"/>
<path d="M123.512 158.364C123.583 158.364 115.911 158.512 113.341 155.319C110.771 152.126 109.034 146.417 113.707 142.523C118.38 138.629 145.818 121.807 158.738 120.483C171.659 119.159 185.491 127.492 185.491 127.492L168.575 140L132.15 148.816L123.512 158.364Z" fill="#263238"/>
<path d="M98.7072 193.45L99.4159 200.428L107.796 199.72L106.534 192.547L98.7072 193.45Z" fill="#FFC3BD"/>
<path d="M97.0794 199.922L109.237 199.751L110.101 205.888C110.101 205.888 98.715 206.044 94.0343 205.421C89.3536 204.797 90.0857 202.36 90.0857 202.36C90.0857 202.36 95.5685 202.492 97.0794 199.922Z" fill="#263238"/>
<path d="M203.176 217.586C204.991 199.746 194.221 184.038 179.119 182.501C164.018 180.965 150.305 194.181 148.489 212.021C146.674 229.861 157.445 245.569 172.546 247.106C187.647 248.642 201.361 235.426 203.176 217.586Z" fill="#263238"/>
<path d="M156.729 115.491C156.729 115.491 157.991 144.439 141.153 145.265C124.315 146.09 106.223 144.245 106.223 144.245L111.526 196.262L95.7399 197.235C95.7399 197.235 84.4081 153.107 82.6246 142.017C80.8411 130.927 82.391 123.084 94.0966 118.162C105.802 113.24 156.729 115.491 156.729 115.491Z" fill="#1D7185"/>
<path d="M62.5 207.336L83.4735 146.417L111.511 115.467C111.511 115.467 87.0405 115.561 75.2804 122.321C63.5202 129.081 63.0841 137.204 60.9268 146.869C58.7695 156.534 50.1168 202.282 50.1168 202.282L62.5 207.336Z" fill="#1D7185"/>
<path opacity="0.7" d="M156.729 115.491C156.729 115.491 130.67 114.33 111.558 115.491C111.558 115.491 87.0872 115.584 75.3271 122.344C63.567 129.104 63.0841 137.204 60.9268 146.869C58.7695 156.534 50.1168 202.282 50.1168 202.282L62.5 207.336L83.4735 146.417C87.0015 163.302 95.7399 197.204 95.7399 197.204L111.526 196.262L106.215 144.276C106.215 144.276 124.299 146.121 141.145 145.296C157.991 144.47 156.729 115.491 156.729 115.491Z" fill="black"/>
<path d="M113.707 68.5358L104.026 69.7118C104.026 69.7118 102.344 87.5078 100.779 90.9657C100.779 90.9657 71.0047 95.0545 58.8084 94.7041L52.6168 98.9097L52.3988 106.223L58.4657 106.402L60.4206 101.768C60.4206 101.768 64.5171 101.589 65.4673 99.2835C65.4673 99.2835 97.1028 106.924 108.754 98.2009C108.769 98.2087 115.794 87.8894 113.707 68.5358Z" fill="#FFC3BD"/>
<path d="M141.449 20.8801C141.449 20.8801 144.478 24.7741 143.326 28.1464C143.007 29.1081 142.447 29.9717 141.698 30.6537C140.949 31.3358 140.037 31.8134 139.05 32.0405C139.05 32.0405 138.481 37.4377 135.296 37.5935C132.111 37.7492 133.178 25.7009 133.178 25.7009L141.449 20.8801Z" fill="#263238"/>
<path d="M116.924 115.623L114.798 80.8333L101.604 72.0638C101.604 72.0638 105.919 56.8535 114.174 54.2757C122.43 51.6978 140.436 45.7866 151.355 48.7227C162.274 51.6588 161.02 64.5405 159.143 74.0965L157.041 74.595C157.041 74.595 156.713 112.251 156.698 115.491L116.924 115.623Z" fill="#263238"/>
<path d="M140.662 50.8723C136.34 55.0545 127.523 57.5467 125.086 55.4673C122.648 53.3878 125.724 51.4797 128.014 49.1277C129.252 47.8349 129.213 45.4128 128.925 43.4813C128.773 42.5081 128.55 41.5475 128.255 40.6075C120.164 40.1635 116.807 36.3785 116.472 29.704C116.137 23.0296 119.159 15.2804 119.159 15.2804L124.875 10.405C124.875 10.405 132.664 11.5732 138.894 15.8567C142.601 18.38 141.503 23.3489 139.969 27.0171C139.319 28.5786 138.537 30.0819 137.632 31.5109C136.76 40.6464 140.662 50.8723 140.662 50.8723Z" fill="#FFC3BD"/>
<path d="M120.974 31.542C120.974 31.542 124.089 31.69 125.452 29.7585" stroke="#263238" stroke-linecap="round" stroke-linejoin="round"/>
<path d="M125.935 23.6605C125.935 24.2524 125.576 24.7196 125.156 24.7118C124.735 24.7041 124.431 24.2134 124.447 23.6215C124.463 23.0296 124.805 22.5623 125.226 22.5701C125.646 22.5779 125.958 23.0686 125.935 23.6605Z" fill="#263238"/>
<path d="M118.832 23.8473C118.832 24.4392 118.474 24.9065 118.053 24.8987C117.632 24.8909 117.329 24.4003 117.344 23.8084C117.36 23.2165 117.703 22.7492 118.123 22.757C118.544 22.7648 118.855 23.2632 118.832 23.8473Z" fill="#263238"/>
<path d="M121.301 28.6838L120.981 23.9097L118.699 28.4424C119.056 28.7451 119.496 28.9307 119.962 28.9739C120.427 29.0171 120.895 28.9158 121.301 28.6838Z" fill="#ED847E"/>
<path d="M125.561 19.9221C126.158 19.758 126.794 19.8111 127.356 20.0721C127.918 20.3331 128.369 20.785 128.629 21.3473" stroke="#263238" stroke-linecap="round" stroke-linejoin="round"/>
<path d="M116.636 20.8022C116.636 20.8022 118.069 19.2445 119.751 19.6417" stroke="#263238" stroke-linecap="round" stroke-linejoin="round"/>
<path d="M140.023 27.0171C131.114 27.3364 130.008 17.2352 130.008 17.2352C125.6 19.5716 119.19 15.2881 119.19 15.2881L124.907 10.3972C124.907 10.3972 132.695 11.581 138.925 15.8489C142.656 18.38 141.558 23.3644 140.023 27.0171Z" fill="#263238"/>
<path d="M116.324 18.2477C116.324 18.2477 111.713 15.1791 113.746 12.9673C115.779 10.7555 128.232 14.9611 137.539 20.1168C137.539 20.1168 116.223 5.8567 110.428 10.366C105.639 14.0966 116.262 19.2757 115.942 19.2679L116.324 18.2477Z" fill="#1D7185"/>
<path d="M142.329 17.204C142.316 18.819 142.01 20.4181 141.425 21.9237L120.491 11.799C121.358 10.7976 122.397 9.95886 123.559 9.32241C124.798 8.6137 126.145 8.11376 127.547 7.84266C129.033 7.55856 130.554 7.50602 132.056 7.6869C139.712 8.56696 142.368 14.4548 142.329 17.204Z" fill="#1D7185"/>
<path d="M49.6184 120.304C49.6184 120.304 25.9735 153.014 45.4439 203.364" stroke="#263238" stroke-linecap="round" stroke-linejoin="round"/>
<path d="M80.8255 137.298C80.8255 137.298 80.8255 137.36 80.8255 137.484C80.8255 137.609 80.8255 137.679 80.8255 137.819V137.897C80.5443 141.047 80.0236 144.172 79.2679 147.243C78.1931 151.783 76.7679 156.106 75.5919 159.579C70.6075 174.338 71.1838 190.241 71.1838 190.241C69.5327 188.185 66.5109 186.721 62.7337 185.693C48.9798 181.916 25.6309 183.941 25.6309 183.941C21.0514 167.874 22.6869 142.726 27.243 128.645C31.7991 114.564 44.4315 117.741 44.4315 117.741C44.4315 117.741 57.7648 118.131 59.4393 117.952C62.5039 117.58 65.6056 117.643 68.6526 118.139C78.9486 120.023 81.4252 128.162 80.8255 137.298Z" fill="#1D7185"/>
<path d="M183.481 198.598C160.117 219.688 115.016 221.9 81.4564 219.564L62.6558 185.74L55.0389 172.04L79.5093 139.058L80.8022 137.321C80.8022 137.321 80.8022 137.383 80.8022 137.508C80.8022 137.632 80.8022 137.702 80.8022 137.843V137.921C80.4673 143.801 78.3022 190.989 95.5997 202.562L95.7399 202.664C98.0805 204.176 100.796 205.007 103.583 205.062C135.319 205.981 134.431 164.564 126.363 155.693L181.433 144.626C181.433 144.626 192.305 172.002 183.481 198.598Z" fill="#1D7185"/>
<path d="M122.227 146.713C122.227 146.713 117.064 150.997 119.727 156.745C122.391 162.492 148.069 151.332 158.178 149.299C168.287 147.266 179.984 145.28 185.016 144.245C190.047 143.209 189.611 128.777 185.498 127.5C181.386 126.223 141.106 133.341 134.424 137.251C130.011 139.93 125.919 143.105 122.227 146.713Z" fill="#263238"/>
<path d="M135.156 30.5841C134.664 30.055 134.367 29.375 134.312 28.655C134.256 27.9351 134.447 27.2177 134.852 26.6199C136.098 24.7508 138.614 21.7835 141.028 24.0031C144.408 27.1184 138.637 32.7804 136.246 31.4096C135.846 31.1871 135.479 30.9092 135.156 30.5841Z" fill="#FFC3BD"/>
<path opacity="0.2" d="M116.324 18.2477C116.324 18.2477 111.713 15.1791 113.746 12.9673C114.65 11.986 117.352 12.1885 121.005 13.2321C123.353 13.8644 125.654 14.6634 127.889 15.6231C131.098 17.0171 134.509 18.8006 137.539 20.1168C137.539 20.1168 116.223 5.8567 110.428 10.366C105.639 14.0966 115.6 18.933 115.95 19.2601L116.121 18.6293L116.324 18.2477Z" fill="black"/>
<path d="M118.512 16.9159C118.512 16.9159 113.84 17.6947 117.064 22.7259L118.512 16.9159Z" fill="#263238"/>
<path d="M122.991 13.8473C122.991 13.8473 115.942 11.3707 113.98 12.7726C112.017 14.1745 114.073 16.8458 116.316 18.2243L118.115 18.4579L119.174 15.2648L121.916 14.9299L122.991 13.8473Z" fill="#263238"/>
<path opacity="0.3" d="M132.593 10.0389L130.903 12.5389L123.559 9.34578C124.798 8.63707 126.145 8.13713 127.547 7.86603L132.593 10.0389Z" fill="white"/>
<path opacity="0.1" d="M130.958 39.9221C130.472 41.2147 129.774 42.4175 128.894 43.4813C128.742 42.5081 128.518 41.5475 128.224 40.6075C129.169 40.5415 130.094 40.3095 130.958 39.9221Z" fill="black"/>
<path d="M61.1371 108.411C60.8256 113.808 58.4891 118.224 55.6231 119.315C55.1271 119.506 54.5959 119.588 54.0654 119.556C50.5296 119.354 47.9595 114.05 48.3178 107.718C48.676 101.386 51.838 96.4174 55.3738 96.6199C56.8147 96.6978 58.0841 97.6246 59.0732 99.1121C60.5296 101.246 61.3474 104.657 61.1371 108.411Z" fill="#F5F5F5"/>
<path d="M61.1371 108.411C60.8255 113.808 58.4891 118.224 55.623 119.315C52.352 119.128 49.9766 114.229 50.3115 108.411C50.6464 102.593 53.5592 97.9751 56.8302 98.162C57.673 98.2249 58.4707 98.5675 59.0966 99.1355C60.5296 101.246 61.3473 104.657 61.1371 108.411Z" fill="white"/>
<path d="M187.36 184.914C181.34 180.685 158.045 176.534 158.045 176.534C143.894 176.534 131.472 189.268 129.759 206.176C128.357 219.93 134.431 232.414 144.221 238.107C144.221 238.107 145.039 238.45 146.41 238.987C151.597 241.036 164.759 245.997 172.539 247.087" fill="#263238"/>
<path opacity="0.3" d="M203.176 217.586C204.991 199.746 194.221 184.038 179.119 182.501C164.018 180.965 150.305 194.181 148.489 212.021C146.674 229.861 157.445 245.569 172.546 247.106C187.647 248.642 201.361 235.426 203.176 217.586Z" fill="black"/>
<path d="M82.1016 216.547C83.9169 198.708 73.1464 183 58.0452 181.463C42.9439 179.927 29.2304 193.143 27.4151 210.983C25.5999 228.823 36.3703 244.531 51.4716 246.067C66.5728 247.604 80.2864 234.387 82.1016 216.547Z" fill="#263238"/>
<path d="M71.5576 187.414L57.6324 245.88C55.6009 246.209 53.5348 246.269 51.4875 246.059H51.3318C48.6604 245.374 49.852 246.114 47.1729 245.226C40.3583 242.975 30.4595 238.995 30.4595 238.995C19.9688 233.894 14.0421 221.488 15.4829 207.313C17.2274 190.14 29.5483 177.313 44.0498 178.364C44.0498 178.364 50.9346 179.634 58.0218 181.48C61.1371 182.259 64.2523 183.185 66.8146 184.151C68.5111 185.061 70.1018 186.155 71.5576 187.414Z" fill="#263238"/>
<path opacity="0.3" d="M82.1028 216.511C80.5452 231.893 70.1324 243.832 57.6168 245.849C55.5853 246.178 53.5192 246.238 51.472 246.028H51.3162C48.4646 245.72 45.6933 244.894 43.1386 243.59C32.6168 238.255 25.9579 225.296 27.4143 210.966C29.229 193.139 42.9128 179.938 58.0062 181.449H58.0452C61.1097 181.758 64.0839 182.666 66.7991 184.12C68.4959 185.032 70.0866 186.129 71.5421 187.391C78.9953 193.871 83.3333 204.743 82.1028 216.511Z" fill="black"/>
<path d="M78.31 196.028C77.8535 195.3 77.3321 194.614 76.7523 193.98C73.271 189.229 65.3115 187.453 60.1012 187.874C56.1071 188.264 52.2722 189.639 48.9408 191.877C45.1402 194.338 42.4221 198.107 38.6527 200.693C31.5031 205.631 20.6542 205.491 13.4735 200.405C13.0686 200.117 12.6835 199.802 12.3209 199.463C11.5891 198.701 11.101 197.738 10.919 196.698C10.6443 195.399 10.7442 194.048 11.2072 192.804C12.7648 188.427 17.9595 184.579 21.2383 182.235C27.8858 177.545 35.7046 174.793 43.824 174.283C66.9782 172.687 76.8536 192.461 78.31 196.028Z" fill="#1D7185"/>
<path opacity="0.3" d="M76.7056 196.651C71.729 189.47 65.3427 187.453 60.1324 187.874C56.1382 188.264 52.3033 189.639 48.972 191.877C45.1713 194.338 42.4533 198.107 38.6838 200.693C31.5343 205.631 20.6854 205.491 13.5047 200.405C13.0997 200.117 12.7147 199.802 12.352 199.463C11.6202 198.701 11.1321 197.738 10.9502 196.698C10.6754 195.399 10.7754 194.048 11.2383 192.804C13.6449 195.584 20.6542 202.282 30.148 199.034C41.986 194.945 44.8754 182.796 57.5311 182.905C67.5857 183.022 73.7773 190.81 76.7056 196.651Z" fill="black"/>
<g opacity="0.3">
<path d="M24.6262 180.093C28.0033 177.693 31.8028 175.952 35.8255 174.961C39.8522 173.936 44.0222 173.594 48.162 173.949C52.2951 174.346 56.3427 175.376 60.1635 177.002L61.581 177.625L62.9673 178.318C63.9019 178.754 64.7819 179.299 65.6853 179.797C66.5888 180.296 67.4221 180.911 68.2866 181.464C69.1511 182.017 69.9611 182.664 70.7866 183.279C67.3901 181.003 63.7643 179.09 59.9688 177.57C56.1807 176.05 52.1892 175.098 48.123 174.743C44.0653 174.355 39.9716 174.618 35.9969 175.522C34.0014 175.964 32.0453 176.568 30.148 177.329C28.2225 178.07 26.3732 178.996 24.6262 180.093Z" fill="black"/>
</g>
<g opacity="0.3">
<path d="M49.8442 174.525C48.8731 171.277 48.2901 167.925 48.1075 164.54C47.8505 161.168 47.796 157.78 47.866 154.416C47.9361 151.051 48.1698 147.656 48.4813 144.291L49.0498 139.26C49.2991 137.586 49.5171 135.911 49.8287 134.245L49.1199 144.369L48.8396 149.416C48.7928 151.098 48.6916 152.78 48.6838 154.463C48.5514 157.827 48.6137 161.192 48.7383 164.587C48.7928 166.269 48.9252 167.944 49.0966 169.618C49.2334 171.269 49.4832 172.908 49.8442 174.525Z" fill="black"/>
</g>
<path opacity="0.3" d="M95.5607 202.492C79.2991 192.033 78.6526 165.047 79.2056 147.243C79.3069 144.182 79.4315 141.402 79.5249 139.011C79.6956 136.618 79.6956 134.216 79.5249 131.822C77.8816 119.595 68.5358 118.123 68.5358 118.123H68.5748C78.9252 120.023 81.4019 128.162 80.8022 137.297C80.8022 137.297 80.8022 137.36 80.8022 137.484C80.8022 137.609 80.8022 137.679 80.8022 137.819V137.897C80.4517 143.777 78.2866 190.966 95.5607 202.492Z" fill="black"/>
<path opacity="0.2" d="M94.2368 110.327C92.8738 111.752 75.2492 108.1 72.1729 109.735C70.8723 110.421 70.3037 112.85 68.9953 115.514C65.3193 121.355 60.148 122.274 59.8287 122.321C65.9969 117.648 67.7181 106.402 64.6573 99.2913C61.5966 92.1807 50.6386 94.0265 50.0156 94.2367C51.8842 93.4152 53.8942 92.963 55.9346 92.905C61.8614 92.5934 69.0888 94.2601 71.1137 98.014C75.2259 105.67 92.8583 103.949 94.4782 105.958C96.0981 107.967 95.5997 108.902 94.2368 110.327Z" fill="black"/>
<path d="M80.4361 103.528C79.3648 105.505 78.9373 107.768 79.2134 110L94.1433 111.682C94.9066 110.799 95.4706 109.762 95.7972 108.641C96.1238 107.52 96.2052 106.342 96.0358 105.187C96.0358 105.187 81.2461 103.699 80.4361 103.528Z" fill="#263238"/>
<path d="M35.1013 102.975C35.1013 102.975 33.6137 99.8131 35.3972 97.8115C31.4097 97.4533 28.9408 97.0327 26.3707 96.6589C25.9891 97.8193 25.8022 98.933 27.1495 100.701C28.4969 102.469 35.1013 102.975 35.1013 102.975Z" fill="#263238"/>
<path d="M26.8069 122.765C24.2212 126.978 22.0093 133.723 21.8146 144.494" stroke="#1D7185" stroke-linecap="round" stroke-linejoin="round"/>
<path d="M35.3193 115.818C33.4382 116.254 31.7088 117.187 30.3115 118.52" stroke="#1D7185" stroke-linecap="round" stroke-linejoin="round"/>
<path d="M151.464 75.2181L141.636 76.4175C141.636 76.4175 139.922 94.4782 138.333 97.9907C138.333 97.9907 108.107 102.15 95.7165 101.783L89.4315 106.051L89.2134 113.481L95.3738 113.66L97.3598 108.988C97.3598 108.988 101.519 108.808 102.477 106.464C102.477 106.464 134.595 114.252 146.425 105.374C146.417 105.343 153.559 94.8676 151.464 75.2181Z" fill="#FFC3BD"/>
<path opacity="0.2" d="M71.433 214.174C71.1526 223.972 64.7352 231.729 57.095 231.511C56.0682 231.48 55.0509 231.305 54.0732 230.989C47.9517 229.042 43.5436 221.822 43.785 213.372C44.0265 205.195 48.5358 198.435 54.4626 196.558C55.6469 196.177 56.8873 196 58.1308 196.036C65.771 196.262 71.7212 204.408 71.433 214.174Z" fill="#FAFAFA"/>
<path d="M64.4003 214.174C64.1589 222.539 59.7274 229.416 54.0732 231.012C47.9517 229.065 43.5436 221.846 43.785 213.396C44.0265 205.218 48.5358 198.458 54.4626 196.581C60.3505 198.178 64.6417 205.514 64.4003 214.174Z" fill="#263238"/>
<path opacity="0.2" d="M191.433 214.953C191.145 224.751 184.727 232.516 177.095 232.29C176.068 232.263 175.05 232.087 174.073 231.768C167.944 229.821 163.536 222.609 163.785 214.151C164.019 205.981 168.528 199.213 174.455 197.336C175.639 196.956 176.88 196.779 178.123 196.815C185.763 197.041 191.713 205.171 191.433 214.953Z" fill="#FAFAFA"/>
<path d="M184.4 214.953C184.151 223.31 179.727 230.187 174.073 231.783C167.944 229.836 163.536 222.625 163.785 214.167C164.019 205.997 168.528 199.229 174.455 197.352C180.35 198.949 184.65 206.285 184.4 214.953Z" fill="#263238"/>
<path d="M203.474 189.143C203.606 198.777 188.941 205.156 164.4 209.174C157.785 210.338 151.025 210.416 144.385 209.408C133.481 207.609 128.154 202.998 128.154 202.998C128.154 202.998 130.927 169.704 158.364 165.483C177.056 162.617 191.121 170.156 198.255 178.279C201.612 182.095 203.435 186.059 203.474 189.143Z" fill="#1D7185"/>
<path opacity="0.3" d="M203.474 189.143C203.606 198.777 188.941 205.156 164.4 209.174C157.785 210.338 151.025 210.416 144.385 209.408C145.561 200.366 150.841 176.651 173.793 174.19C184.206 173.069 192.243 175.171 198.255 178.279C201.612 182.095 203.435 186.059 203.474 189.143Z" fill="black"/>
<g opacity="0.3">
<path d="M129.743 203.146C130.248 198.614 131.329 194.165 132.959 189.907C134.563 185.604 136.777 181.554 139.533 177.882C140.925 176.056 142.49 174.369 144.206 172.843C145.906 171.292 147.779 169.943 149.79 168.824C153.79 166.568 158.223 165.185 162.796 164.766C160.555 165.142 158.351 165.71 156.207 166.464C155.125 166.791 154.104 167.298 153.092 167.726C152.076 168.212 151.086 168.75 150.125 169.338C149.143 169.899 148.24 170.576 147.313 171.207C146.386 171.838 145.53 172.586 144.712 173.372C143.049 174.884 141.534 176.55 140.187 178.349C137.451 181.951 135.221 185.91 133.559 190.117C132.696 192.212 131.953 194.355 131.332 196.534C130.671 198.705 130.14 200.913 129.743 203.146Z" fill="black"/>
</g>
<path d="M92.9206 192.15L94.5405 197.648L111.526 196.23L111.752 188.544L92.9206 192.15Z" fill="#1D7185"/>
</svg>
