<svg width="240" height="250" viewBox="0 0 240 250" fill="none" xmlns="http://www.w3.org/2000/svg">
<path d="M11.9155 79.6025C10.4576 83.2117 9.58827 87.0313 9.34059 90.9159C8.60327 99.5564 11.6447 124.263 13.4189 136.815C15.9708 157.8 19.0929 157.834 23.6436 161.348C31.4604 167.385 53.9546 179.205 61.3798 182.154C74.8417 187.448 85.844 179.274 94.0468 175.242C101.568 171.438 108.829 167.139 115.781 162.373C117.831 160.876 118.891 159.366 118.874 157.765C118.874 157.143 118.874 154.562 118.874 153.9C118.874 151.872 117.088 149.7 113.321 147.258C106.368 142.748 81.2415 128.093 71.5007 122.702C71.4983 122.681 71.489 122.662 71.4744 122.647C71.4598 122.633 71.4406 122.623 71.4201 122.621C63.9316 118.07 59.3233 90.5645 54.139 74.1129C54.0295 73.7673 53.9201 73.4216 53.8049 73.0933C53.6897 72.765 53.6205 72.5749 53.5341 72.3272C53.2058 71.4343 52.8717 70.5991 52.5146 69.8675" fill="#1D7185"/>
<path d="M118.874 153.894C118.874 151.866 117.088 149.695 113.321 147.252C106.368 142.742 81.2415 128.088 71.5007 122.696C71.4983 122.675 71.489 122.656 71.4744 122.642C71.4597 122.627 71.4406 122.618 71.4201 122.615C63.9316 118.064 59.3233 90.5587 54.139 74.1071C53.8297 73.0813 53.4682 72.0719 53.056 71.0829L52.9581 70.864C52.8659 70.6451 52.768 70.4205 52.6643 70.1958C52.6125 70.0864 52.5664 69.9654 52.5145 69.8617C51.6973 67.9869 50.5235 66.2887 49.0583 64.8617C48.5411 64.3851 47.9594 63.9837 47.3302 63.6693C46.4892 63.1912 44.7208 62.2062 44.2772 61.9412C39.185 58.8997 32.5145 62.5518 24.1966 67.1255C19.0122 69.9596 14.6055 73.3352 11.9212 79.614C10.4634 83.2232 9.59401 87.0428 9.34633 90.9274C8.609 99.5679 11.6505 124.274 13.4247 136.826C15.9765 157.811 19.0986 157.846 23.6493 161.359C31.4661 167.396 53.9604 179.217 61.3855 182.166C74.8475 187.46 85.8498 179.286 94.0526 175.253C101.574 171.45 108.835 167.151 115.786 162.385C117.837 160.887 118.897 159.378 118.88 157.776C118.857 157.137 118.874 154.556 118.874 153.894Z" fill="#1D7185"/>
<path opacity="0.25" d="M118.874 153.894C118.874 151.866 117.088 149.695 113.321 147.252C106.368 142.742 81.2415 128.088 71.5007 122.696C71.4983 122.675 71.489 122.656 71.4744 122.642C71.4597 122.627 71.4406 122.618 71.4201 122.615C63.9316 118.064 59.3233 90.5587 54.139 74.1071C53.8297 73.0813 53.4682 72.0719 53.056 71.0829L52.9581 70.864C52.8659 70.6451 52.768 70.4205 52.6643 70.1958C52.6125 70.0864 52.5664 69.9654 52.5145 69.8617C51.6973 67.9869 50.5235 66.2887 49.0583 64.8617C48.5411 64.3851 47.9594 63.9837 47.3302 63.6693C46.4892 63.1912 44.7208 62.2062 44.2772 61.9412C39.185 58.8997 32.5145 62.5518 24.1966 67.1255C19.0122 69.9596 14.6055 73.3352 11.9212 79.614C10.4634 83.2232 9.59401 87.0428 9.34633 90.9274C8.609 99.5679 11.6505 124.274 13.4247 136.826C15.9765 157.811 19.0986 157.846 23.6493 161.359C31.4661 167.396 53.9604 179.217 61.3855 182.166C74.8475 187.46 85.8498 179.286 94.0526 175.253C101.574 171.45 108.835 167.151 115.786 162.385C117.837 160.887 118.897 159.378 118.88 157.776C118.857 157.137 118.874 154.556 118.874 153.894Z" fill="white"/>
<path d="M94.0411 171.325C101.562 167.519 108.823 163.218 115.775 158.45C120.441 155.058 120.009 151.59 113.321 147.252C104.03 141.227 66.1609 119.735 66.1609 119.735C66.1609 119.735 18.2807 147.995 20.3372 153.226C22.3936 158.456 52.0192 174.591 61.3683 178.26C74.836 183.543 85.8383 175.374 94.0411 171.325Z" fill="#1D7185"/>
<path opacity="0.6" d="M94.0411 171.325C101.562 167.519 108.823 163.218 115.775 158.45C120.441 155.058 120.009 151.59 113.321 147.252C104.03 141.227 66.1609 119.735 66.1609 119.735C66.1609 119.735 18.2807 147.995 20.3372 153.226C22.3936 158.456 52.0192 174.591 61.3683 178.26C74.836 183.543 85.8383 175.374 94.0411 171.325Z" fill="white"/>
<path d="M47.3245 63.6694C42.2841 61.0253 35.7346 64.6198 27.6355 69.0553C22.4512 71.9009 18.0215 75.2765 15.3371 81.5841L11.9155 79.6025C14.5998 73.3237 19.0122 69.9482 24.1908 67.1141C32.5088 62.5576 39.1678 58.9055 44.2715 61.9297C44.715 62.212 46.4834 63.1912 47.3245 63.6694Z" fill="#1D7185"/>
<path opacity="0.5" d="M47.3245 63.6694C42.2841 61.0253 35.7346 64.6198 27.6355 69.0553C22.4512 71.9009 18.0215 75.2765 15.3371 81.5841L11.9155 79.6025C14.5998 73.3237 19.0122 69.9482 24.1908 67.1141C32.5088 62.5576 39.1678 58.9055 44.2715 61.9297C44.715 62.212 46.4834 63.1912 47.3245 63.6694Z" fill="white"/>
<path d="M54.1159 74.1071C54.0065 73.7615 52.2726 67.7246 49.0237 64.8617C47.5001 63.507 45.5268 62.7678 43.488 62.788C39.0871 62.788 33.8049 65.6682 27.6125 69.0841C27.094 69.3663 26.5814 69.6601 26.0802 69.9539C25.8843 70.0633 25.6943 70.1843 25.5042 70.2995C25.3141 70.4147 25.0433 70.5818 24.8187 70.7315C24.594 70.8813 24.4846 70.9389 24.3175 71.0541C23.2247 71.7742 22.1816 72.567 21.1954 73.4274C21.0341 73.5657 20.8843 73.7039 20.7288 73.8537C20.1033 74.4305 19.5128 75.0441 18.9604 75.6912C18.8567 75.8064 18.753 75.9274 18.6608 76.0426C18.5687 76.1578 18.4189 76.3306 18.3095 76.4804C18.2 76.6302 18.0848 76.7799 17.9696 76.9297C17.8544 77.0795 17.7507 77.2292 17.6413 77.3905C17.1991 78.022 16.7896 78.6757 16.4143 79.3491C16.3607 79.4342 16.3126 79.5227 16.2703 79.614C16.1666 79.7926 16.0687 79.9827 15.9765 80.1901C15.8843 80.3975 15.7058 80.7661 15.5733 81.0196C14.162 84.1302 13.1827 87.9781 12.768 92.8802C11.5698 107.126 16.5641 150.795 21.4604 154.856C21.4604 154.856 20.7115 150.248 30.5618 144.05C37.2611 139.839 41.9615 136.296 49.1102 132.788C66.5295 124.234 71.4085 122.632 71.4085 122.632C63.9316 118.088 59.306 90.5587 54.1159 74.1071Z" fill="#1D7185"/>
<path opacity="0.4" d="M54.1159 74.1071C54.0065 73.7615 52.2726 67.7246 49.0237 64.8617C47.5001 63.507 45.5268 62.7678 43.488 62.788C39.0871 62.788 33.8049 65.6682 27.6125 69.0841C27.094 69.3663 26.5814 69.6601 26.0802 69.9539C25.8843 70.0633 25.6943 70.1843 25.5042 70.2995C25.3141 70.4147 25.0433 70.5818 24.8187 70.7315C24.594 70.8813 24.4846 70.9389 24.3175 71.0541C23.2247 71.7742 22.1816 72.567 21.1954 73.4274C21.0341 73.5657 20.8843 73.7039 20.7288 73.8537C20.1033 74.4305 19.5128 75.0441 18.9604 75.6912C18.8567 75.8064 18.753 75.9274 18.6608 76.0426C18.5687 76.1578 18.4189 76.3306 18.3095 76.4804C18.2 76.6302 18.0848 76.7799 17.9696 76.9297C17.8544 77.0795 17.7507 77.2292 17.6413 77.3905C17.1991 78.022 16.7896 78.6757 16.4143 79.3491C16.3607 79.4342 16.3126 79.5227 16.2703 79.614C16.1666 79.7926 16.0687 79.9827 15.9765 80.1901C15.8843 80.3975 15.7058 80.7661 15.5733 81.0196C14.162 84.1302 13.1827 87.9781 12.768 92.8802C11.5698 107.126 16.5641 150.795 21.4604 154.856C21.4604 154.856 20.7115 150.248 30.5618 144.05C37.2611 139.839 41.9615 136.296 49.1102 132.788C66.5295 124.234 71.4085 122.632 71.4085 122.632C63.9316 118.088 59.306 90.5587 54.1159 74.1071Z" fill="white"/>
<path d="M123.35 146.889L83.0272 170.173L53.1424 135.035L84.1965 120.299C84.1965 120.299 109.559 133.773 123.35 146.889Z" fill="#37474F"/>
<path d="M102.762 158.761L87.6355 167.494C80.4638 156.313 74.6977 146.838 74.6977 146.838L75.9938 146.624C83.0272 143.543 85.9016 129.608 85.9016 129.608C86.7599 133.416 86.9154 141.129 84.5652 144.009C87.8429 146.411 93.2115 150.812 102.762 158.761Z" fill="#263238"/>
<path d="M100.372 160.138L68.7415 178.399C64.9339 176.469 60.7403 174.309 56.397 172.062C41.6966 164.332 36.7772 161.29 32.5433 155.945C27.6873 149.827 25.1528 144.804 24.4327 127.88L84.0238 120.392C88.9604 133.255 81.7196 144.372 81.7196 144.372C81.7196 144.372 92.1632 153.093 100.372 160.138Z" fill="#37474F"/>
<path d="M68.0676 55.6278C75.51 55.553 79.957 57.0161 85.1816 65.023C93.3902 77.5979 99.4961 89.3202 99.4961 89.3202C99.4961 89.3202 110.475 94.6083 116.201 96.6014C121.558 98.462 123.69 99.2454 125.994 99.7868C127.912 100.25 129.866 100.545 131.835 100.668C131.835 100.668 129.139 115.069 123.125 113.813C113.793 111.861 97.2611 108.779 92.866 107.546C88.4708 106.313 87.0134 104.17 82.7565 98.5311C78.4247 92.7707 69.3406 77.5115 69.3406 77.5115L68.0676 55.6278Z" fill="#C8856A"/>
<path d="M68.0676 55.3975C74.8417 55.5357 77.3533 56.0484 80.5388 58.7961C83.7242 61.5438 86.76 66.5783 89.6113 71.2039C92.4627 75.8295 97.6355 84.6198 97.6355 84.6198C97.6355 84.6198 96.5238 89.5449 90.9247 93.3064C85.3256 97.068 81.4143 97.5461 81.4143 97.5461L67.7968 78.0069L68.0676 55.3975Z" fill="#455A64"/>
<path d="M84.3406 79.8675C83.5629 63.0933 76.5698 56.3709 68.0675 55.3974C68.0675 55.3974 56.9846 54.9424 50.2104 55.9159C41.9788 57.1083 33.465 59.2511 33.465 59.2511C30.1701 60.7834 24.692 73.75 24.0986 85.5818C23.6724 93.9862 23.3268 100.334 23.3268 110.962C23.3268 121.59 23.2519 126.573 25.0145 137.667C36.6102 142.114 76.374 140.876 86.2357 121.394C84.7254 117.674 84.0074 113.679 84.1274 109.666C84.2081 104.032 84.5825 85.1382 84.3406 79.8675Z" fill="#F0F0F0"/>
<path d="M46.8636 49.2281C46.7542 44.4816 42.8314 38.9746 41.3625 34.6313C39.9339 30.4493 39.1793 27.2523 39.9397 23.629C40.3948 21.4804 42.1862 18.7385 43.8855 18.3583C43.2001 10.0288 49.7957 7.17165 53.1021 6.87211C54.6494 6.78336 56.1889 6.59091 57.7104 6.29607C59.5653 5.81796 60.1643 4.47003 61.7427 3.48501C64.4673 1.7569 68.5572 2.33294 69.6574 5.66819C71.5756 3.81911 73.7531 4.19354 76.1897 5.2016C77.2204 5.6013 78.0611 6.37709 78.5422 7.37242C79.0233 8.36774 79.109 9.50851 78.7819 10.5645C82.4397 9.16474 85.1931 12.0046 85.2104 14.0207C85.2104 15.5184 84.7323 16.7108 85.5042 18.1624C86.3683 19.7984 88.3844 20.0691 89.2081 18.9689C89.2542 21.1002 88.2058 22.5691 85.965 22.1256C86.2603 22.7567 86.4133 23.4449 86.4133 24.1417C86.4133 24.8385 86.2603 25.5267 85.965 26.1578C85.5731 26.953 84.9477 27.6095 84.1726 28.0398C83.3976 28.47 82.5096 28.6535 81.6275 28.5657C81.2243 29.6774 81.0226 30.7143 80.1586 31.5956C79.333 32.4984 78.3014 33.1881 77.1517 33.606C73.4938 34.7581 69.6632 34.712 65.8441 34.9366L61.3395 35.2074C61.0802 35.2074 59.7438 35.1094 59.5537 35.3111L46.8636 49.2281Z" fill="#263238"/>
<path d="M42.1286 42.4193C45.101 44.8387 47.6125 43.053 47.6125 43.053L45.1528 58.2949C46.7369 65.2074 57.745 67.932 62.0768 66.6763C66.4086 65.4205 66.2473 62.932 64.1448 58.8882L64.8014 56.4516C66.6367 56.7588 68.4894 56.9512 70.3487 57.0276C74.0468 57.0622 77.624 53.9919 79.2369 50.2131C81.0863 45.4481 81.8727 40.3367 81.5411 35.2362C81.4399 33.9441 81.5627 32.6443 81.904 31.394C82.745 28.0703 82.4224 26.0138 81.9673 23.0472C78.4362 19.2454 69.3579 16.803 59.9742 20.7834C60.2219 26.0599 57.6355 29.8329 53.6378 31.2385C53.6378 32.6498 53.2692 36.1751 51.0054 35.7776C49.3694 35.4896 49.5653 33.4159 48.1252 31.3594C46.6851 29.303 42.8487 28.2431 40.9362 30.6912C38.2519 34.0553 38.8798 39.7465 42.1286 42.4193Z" fill="#C8856A"/>
<path d="M64.2254 44.6256C63.9825 44.9147 63.8249 45.2658 63.7703 45.6394C63.7386 45.8049 63.7386 45.975 63.7703 46.1405C63.816 46.387 63.9241 46.6177 64.0845 46.8103C64.2449 47.003 64.4521 47.1512 64.6862 47.2408C64.9595 47.3623 65.2571 47.4195 65.556 47.4078C66.1327 47.3089 66.6698 47.0494 67.1056 46.659C67.5494 46.2605 68.1079 46.0125 68.7012 45.9505C68.2042 45.6566 67.7356 45.3172 67.3014 44.9366C67.0898 44.7848 66.8965 44.6088 66.7254 44.4124C66.5507 44.1789 66.3911 43.9346 66.2473 43.6809C66.2206 43.6208 66.1737 43.5719 66.1148 43.5426C66.0555 43.5195 65.9897 43.5195 65.9305 43.5426C65.4066 43.6839 64.9181 43.9331 64.4961 44.2742C64.3956 44.383 64.305 44.5006 64.2254 44.6256Z" fill="#FFA8A7"/>
<path d="M67.048 44.8502C66.9616 44.5795 66.6332 44.6774 66.4316 44.7293C66.1161 44.8099 65.8176 44.9465 65.5503 45.1325C65.3879 45.246 65.2441 45.384 65.124 45.5415C65.0179 45.7116 64.9273 45.8909 64.8533 46.0772C64.8533 46.0772 64.8533 46.1406 64.8533 46.1175C64.9861 46.0043 65.1266 45.9003 65.2738 45.8065L65.7346 45.5012C66.014 45.3312 66.3167 45.2031 66.6332 45.121C66.8003 45.0864 67.1056 45.0922 67.048 44.8502Z" fill="#F28F8F"/>
<path d="M70.9766 42.6901L76.8003 41.6417C75.1586 36.6878 72.768 32.091 71.109 32.1083L70.9766 42.6901Z" fill="#AF6152"/>
<path d="M65.9189 43.3007C66.0188 43.2965 66.1181 43.3183 66.207 43.3641C66.4658 43.5191 66.699 43.7135 66.8982 43.9401C67.6832 44.6738 68.5946 45.2593 69.5883 45.6682C69.8013 45.7542 70.0185 45.8292 70.2392 45.8929L70.9881 46.1175C71.0756 46.1328 71.1562 46.1751 71.2185 46.2385C71.6102 46.7051 70.1989 46.5207 70.0664 46.4977C69.5277 46.4161 69 46.273 68.4938 46.0714C67.4718 45.6814 66.57 45.0298 65.8786 44.182C65.7647 44.0558 65.6836 43.9035 65.6424 43.7385C65.624 43.6552 65.6345 43.5682 65.6722 43.4917C65.7099 43.4153 65.7725 43.354 65.8498 43.318C65.8712 43.3069 65.8949 43.301 65.9189 43.3007Z" fill="#AF6152"/>
<path d="M64.8014 56.4516C59.139 54.9309 54.8533 53.6694 52.4627 49.0553C50.965 46.1751 49.9915 41.7224 49.9915 41.7224C49.9915 41.7224 49.836 46.9067 51.207 50.6394C52.2726 53.5196 55.3544 56.371 64.2715 58.462L64.8014 56.4516Z" fill="#AF6152"/>
<path d="M67.5376 33.5714C67.4918 33.9076 67.348 34.2228 67.1243 34.4778C66.9005 34.7328 66.6066 34.9163 66.2793 35.0054C65.952 35.0945 65.6056 35.0853 65.2835 34.9789C64.9614 34.8726 64.6776 34.6737 64.4677 34.4072C64.2578 34.1407 64.131 33.8183 64.1031 33.4802C64.0752 33.1421 64.1474 32.8033 64.3107 32.5059C64.4741 32.2086 64.7213 31.9659 65.0216 31.8081C65.3219 31.6504 65.6621 31.5845 65.9996 31.6187C66.2304 31.6421 66.4541 31.7117 66.6574 31.8234C66.8607 31.935 67.0394 32.0865 67.1829 32.2687C67.3264 32.4509 67.4318 32.6602 67.4928 32.884C67.5537 33.1078 67.5689 33.3416 67.5376 33.5714Z" fill="#263238"/>
<path d="M67.0249 27.8514L63.0733 29.2684C62.8885 28.7272 62.9216 28.1353 63.1657 27.6181C63.4098 27.1009 63.8456 26.699 64.3809 26.4977C64.643 26.4042 64.9214 26.3653 65.1991 26.3834C65.4767 26.4016 65.7477 26.4763 65.9954 26.6032C66.2431 26.73 66.4622 26.9061 66.6393 27.1208C66.8163 27.3354 66.9476 27.5841 67.0249 27.8514Z" fill="#263238"/>
<path d="M80.6712 30.5299L77.0652 28.3064C77.1986 28.0615 77.3808 27.8464 77.6006 27.6747C77.8204 27.5029 78.0731 27.3781 78.3431 27.3079C78.613 27.2377 78.8945 27.2237 79.1701 27.2666C79.4458 27.3096 79.7096 27.4086 79.9454 27.5576C80.4228 27.8669 80.7638 28.347 80.8988 28.8996C81.0337 29.4522 80.9523 30.0354 80.6712 30.5299Z" fill="#263238"/>
<path d="M79.5307 34.8963C79.4567 35.2277 79.2866 35.53 79.0417 35.7654C78.7969 36.0007 78.4881 36.1587 78.154 36.2196C77.8198 36.2804 77.4752 36.2415 77.163 36.1076C76.8509 35.9738 76.5852 35.7509 76.399 35.4669C76.2128 35.1828 76.1144 34.8502 76.1161 34.5106C76.1178 34.171 76.2196 33.8394 76.4087 33.5573C76.5978 33.2752 76.8658 33.055 77.1793 32.9244C77.4928 32.7937 77.8378 32.7583 78.1713 32.8226C78.3983 32.8663 78.6143 32.9552 78.8063 33.0839C78.9984 33.2127 79.1627 33.3786 79.2894 33.572C79.4162 33.7654 79.5029 33.9822 79.5443 34.2097C79.5858 34.4372 79.5811 34.6706 79.5307 34.8963Z" fill="#263238"/>
<path d="M98.6321 217.402L24.9397 174.856L158.056 98.0012L231.743 140.547L98.6321 217.402Z" fill="#1D7185"/>
<path opacity="0.8" d="M98.6321 217.402L24.9397 174.856L158.056 98.0012L231.743 140.547L98.6321 217.402Z" fill="white"/>
<path d="M24.9397 174.856V205.046L98.6321 247.592V217.402L24.9397 174.856Z" fill="#1D7185"/>
<path opacity="0.5" d="M24.9397 174.856V205.046L98.6321 247.592V217.402L24.9397 174.856Z" fill="white"/>
<path d="M98.6321 247.592L231.748 170.737L231.743 140.547L98.6321 217.402V247.592Z" fill="#1D7185"/>
<path opacity="0.65" d="M98.6321 217.402L231.743 140.547L231.748 170.737L98.6321 247.592V217.402Z" fill="white"/>
<path d="M200.481 158.594L165.187 206.878L129.894 199.349L200.481 158.594Z" fill="#EBEBEB"/>
<path d="M47.0077 187.598L61.783 223.053L76.5641 204.66L47.0077 187.598Z" fill="#E0E0E0"/>
<path d="M200.378 158.658L209.698 127.817L179.894 110.611L127.117 115.864L56.1897 156.815L47.0077 187.552L76.616 204.649L129.894 199.349L200.378 158.658Z" fill="#FAFAFA"/>
<path d="M136.875 195.317C144.093 199.349 153.004 199.032 162.641 193.462C172.278 187.892 181.207 177.909 188.419 165.559L136.875 195.317Z" fill="#E0E0E0"/>
<path opacity="0.2" d="M171.103 135.098C154.277 125.38 130.124 122.483 108.891 126.377L68.9604 149.418C62.2266 161.665 67.2669 175.599 84.0872 185.311C98.4881 193.612 118.189 196.941 136.858 195.305L188.402 165.547C191.247 154.781 185.481 143.399 171.103 135.098Z" fill="#1D7185"/>
<path d="M123.137 113.813L126.109 114.775C127.457 115.258 128.845 115.622 130.257 115.864C131.604 116.054 133.246 115.449 134.479 115.783C135.055 115.933 137.013 116.624 137.273 117.183C137.532 117.742 137.111 118.433 137.14 118.963C137.219 119.692 137.414 120.404 137.716 121.071C138.125 122.091 138.592 123.191 139.548 123.733C139.836 123.894 140.159 123.998 140.429 124.176C140.859 124.549 141.259 124.953 141.627 125.386C142.018 125.722 142.494 125.943 143.003 126.022C143.512 126.101 144.033 126.037 144.508 125.835C145.149 125.494 145.708 125.016 146.144 124.435C146.877 123.576 147.562 122.676 148.194 121.74C149.439 119.896 150.498 117.644 149.888 115.513C149.542 114.361 148.736 113.352 148.655 112.154C148.681 111.671 148.681 111.186 148.655 110.703C148.482 109.597 147.44 108.813 147.146 107.736C147.042 107.339 147.042 106.918 146.979 106.515C146.743 105.04 145.487 104.044 144.415 103.111C143.288 102.125 142.06 101.26 140.752 100.53C140.22 100.201 139.635 99.9674 139.024 99.8387C138.513 99.7699 137.996 99.7699 137.486 99.8387C135.562 100.035 133.713 100.415 131.818 100.662C130.147 100.887 128.304 101.308 126.91 102.391C125.377 103.589 124.536 105.576 123.713 107.275C122.774 109.205 121.852 111.164 121.011 113.128L123.137 113.813Z" fill="#C8856A"/>
<path d="M137.889 121.1L146.72 86.9181C146.123 86.442 145.587 85.8945 145.124 85.288L144.68 85.4032L134.784 118.496C134.502 119.516 136.449 121.676 137.192 121.486L137.641 121.377C137.703 121.357 137.759 121.32 137.802 121.272C137.846 121.223 137.876 121.164 137.889 121.1Z" fill="#37474F"/>
<path d="M134.784 118.497C134.456 119.649 137.117 122.391 137.445 121.21L146.276 87.0276C145.678 86.555 145.142 86.0093 144.68 85.4032L134.784 118.497Z" fill="#455A64"/>
<path opacity="0.1" d="M145.856 87.3271L138.01 117.972C137.434 120.276 137.232 121.676 136.149 120.57C134.876 119.28 135.17 118.808 135.17 118.808C135.353 119.301 135.647 119.746 136.028 120.109C136.714 120.749 137.18 119.914 137.526 118.232C137.872 116.549 145.856 87.3271 145.856 87.3271Z" fill="white"/>
<path d="M152.1 68.773L151.662 68.8767C151.662 68.8767 152.762 71.4573 151.489 75.6797C151.358 76.7602 150.973 77.7945 150.366 78.6981C150.251 78.3928 150.85 76.8951 151.057 75.3917C151.731 70.5472 151.362 68.3813 151.362 68.3813L150.856 68.1394L150.412 68.2488C150.412 68.2488 151.144 69.2626 149.721 75.3513C149.462 77.1716 149.064 77.5403 148.701 77.9435C148.39 77.7707 149.041 76.1232 149.277 74.8329C150.32 69.4873 150.182 67.9205 150.182 67.9205L149.525 67.5288L149.081 67.6382C149.081 67.6382 149.508 68.5368 147.791 74.9193C147.599 75.7006 147.278 76.4442 146.841 77.1198C146.541 76.8375 146.979 76.008 147.509 74.2396C148.244 71.9474 148.644 69.561 148.695 67.1543L148.119 66.8375L147.682 66.947C147.682 66.947 148.454 69.2511 145.066 76.3594C144.268 78.0817 143.917 79.978 144.047 81.8721C144.26 83.6002 145.003 84.4412 144.675 85.4205C145.1 86.0569 145.642 86.6079 146.27 87.0449C146.3 86.9256 146.343 86.8098 146.397 86.6993C146.501 86.7799 146.604 86.8663 146.708 86.9412C147.094 85.3053 149.525 85.0921 150.481 83.7154C151.437 82.3387 152.267 80.4666 153.062 76.2788C153.874 71.97 152.641 69.1186 152.641 69.1186L152.1 68.773Z" fill="#37474F"/>
<path d="M151.662 68.8767C151.662 68.8767 152.486 70.9619 151.489 75.6797C151.144 77.3041 150.441 79.1359 149.992 78.8882C149.542 78.6405 150.354 77.1025 150.619 75.5011C151.466 70.4032 150.925 68.485 150.925 68.485L150.412 68.2488C150.412 68.2488 150.942 69.8387 149.721 75.3513C149.375 76.8894 148.73 78.3467 148.189 78.0472C147.647 77.7477 148.465 76.2384 148.765 74.9366C150.043 69.7004 149.738 68.0241 149.738 68.0241L149.076 67.6382C149.076 67.6382 149.341 69.2108 147.785 74.9193C147.411 76.2903 146.823 77.4654 146.403 77.258C145.982 77.0506 146.455 76.2384 147.065 74.349C148.551 69.7407 148.246 67.258 148.246 67.258L147.67 66.947C147.67 66.947 148.068 69.2511 145.055 76.3594C144.479 77.7534 143.828 80.1612 144.035 81.8721C144.243 83.5829 144.992 84.4412 144.663 85.4205C145.089 86.0569 145.63 86.6079 146.259 87.0449C146.645 85.4089 149.07 85.2016 150.032 83.8191C150.994 82.4366 151.818 80.576 152.613 76.3882C153.425 72.0794 152.186 69.2223 152.186 69.2223L151.662 68.8767Z" fill="#455A64"/>
<path opacity="0.1" d="M148.194 83.7672C147.803 84.0783 147.382 84.3433 147.042 84.6947C146.669 85.0318 146.435 85.496 146.386 85.9965C146.678 85.6635 147.015 85.3727 147.388 85.1324C147.664 84.9654 147.964 84.8387 148.252 84.6889C149.437 84.0486 150.36 83.0132 150.861 81.7626C150.942 81.5553 151.507 80.0345 151.005 80.0633C150.81 80.0633 150.585 80.7373 150.493 80.9043C150.308 81.2384 150.113 81.5668 149.917 81.8778C149.442 82.5918 148.861 83.229 148.194 83.7672Z" fill="white"/>
<path d="M132.117 102.535C134.713 102.996 137.344 103.233 139.98 103.243C141.599 103.18 142.515 103.001 142.728 103.641C142.941 104.28 143.131 106.008 140.314 107.46C137.497 108.911 129.594 109.545 129.594 109.545L132.117 102.535Z" fill="#C8856A"/>
<path d="M132.117 102.535C133.216 102.703 134.324 102.809 135.435 102.851C136.547 102.926 137.659 102.967 138.765 102.967C139.341 102.967 139.859 102.967 140.412 102.926C140.987 102.867 141.566 102.867 142.14 102.926C142.326 102.947 142.504 103.01 142.661 103.11C142.819 103.209 142.952 103.344 143.05 103.502C143.202 103.824 143.241 104.187 143.16 104.533C143.033 105.134 142.76 105.694 142.365 106.164C141.591 107.04 140.628 107.727 139.548 108.174C138.508 108.648 137.406 108.976 136.276 109.147C135.164 109.3 134.045 109.392 132.924 109.424C131.806 109.459 130.689 109.424 129.583 109.539C131.777 109.078 134.03 109.084 136.184 108.612C137.254 108.404 138.294 108.067 139.283 107.609C140.262 107.182 141.134 106.543 141.835 105.737C142.167 105.358 142.403 104.903 142.52 104.412C142.612 103.888 142.52 103.629 142.025 103.543C141.046 103.399 139.842 103.617 138.736 103.497C136.502 103.407 134.284 103.085 132.117 102.535Z" fill="#AF6152"/>
<path d="M186.259 148.658V156.843C186.19 165.484 180.498 174.055 169.087 180.628C146.184 193.877 109.047 193.877 86.1378 180.628C74.7554 174.055 69.0353 165.455 68.9662 156.843V148.658L76.2934 149.844C79.1938 146.872 82.5005 144.326 86.1148 142.281C109.024 129.032 146.161 129.032 169.064 142.281C172.663 144.306 175.959 146.827 178.857 149.77L186.259 148.658Z" fill="#1D7185"/>
<path opacity="0.4" d="M186.259 148.658V156.843C186.19 165.484 180.498 174.055 169.087 180.628C146.184 193.877 109.047 193.877 86.1378 180.628C74.7554 174.055 69.0353 165.455 68.9662 156.843V148.658L76.2934 149.844C79.1938 146.872 82.5005 144.326 86.1148 142.281C109.024 129.032 146.161 129.032 169.064 142.281C172.663 144.306 175.959 146.827 178.857 149.77L186.259 148.658Z" fill="white"/>
<path opacity="0.4" d="M91.9155 183.543C89.9447 182.675 88.0218 181.702 86.1551 180.628C74.7726 174.055 69.0526 165.455 68.9835 156.843V148.658L76.3106 149.845C76.927 149.199 77.5837 148.571 78.2749 147.949L91.9443 151.319L91.9155 183.543Z" fill="#1D7185"/>
<path d="M127.607 182.362C159.999 182.362 186.259 167.2 186.259 148.497C186.259 129.793 159.999 114.631 127.607 114.631C95.2141 114.631 68.9547 129.793 68.9547 148.497C68.9547 167.2 95.2141 182.362 127.607 182.362Z" fill="#1D7185"/>
<path opacity="0.6" d="M127.607 182.362C159.999 182.362 186.259 167.2 186.259 148.497C186.259 129.793 159.999 114.631 127.607 114.631C95.2141 114.631 68.9547 129.793 68.9547 148.497C68.9547 167.2 95.2141 182.362 127.607 182.362Z" fill="white"/>
<path d="M177.601 141.02C182.739 149.931 178.338 159.562 165.821 166.786C145.084 178.75 110.107 178.75 89.3925 166.786C83.9662 163.646 79.8936 159.908 77.6183 155.962C72.4743 147.062 76.8982 137.425 89.3925 130.184C110.13 118.22 145.107 118.22 165.821 130.184C171.247 133.324 175.32 137.062 177.595 141.008L177.601 141.02Z" fill="#1D7185"/>
<path d="M177.601 140.357C182.739 150.058 178.338 160.518 165.821 168.41C145.084 181.434 110.107 181.434 89.3925 168.41C83.9662 165 79.8936 160.922 77.6183 156.63C72.4743 146.93 76.8752 136.469 89.3925 128.577C110.13 115.553 145.107 115.553 165.821 128.577C171.247 131.987 175.32 136.066 177.595 140.357H177.601Z" fill="#1D7185"/>
<path opacity="0.4" d="M177.601 140.357C182.739 150.058 178.338 160.518 165.821 168.41C145.084 181.434 110.107 181.434 89.3925 168.41C83.9662 165 79.8936 160.922 77.6183 156.63C72.4743 146.93 76.8752 136.469 89.3925 128.577C110.13 115.553 145.107 115.553 165.821 128.577C171.247 131.987 175.32 136.066 177.595 140.357H177.601Z" fill="white"/>
<path d="M89.3406 133.41C81.3682 138.422 76.7023 144.493 75.6827 150.749C75.9771 152.808 76.6323 154.799 77.6182 156.63C79.8936 160.927 83.9546 165 89.3924 168.41C110.13 181.434 145.107 181.434 165.821 168.41C173.793 163.399 178.453 157.327 179.479 151.077C179.182 149.017 178.527 147.025 177.543 145.19C175.239 140.899 171.207 136.82 165.763 133.41C145.049 120.392 110.049 120.392 89.3406 133.41Z" fill="#FAFAFA"/>
<path d="M158.402 169.211C158.117 169.346 157.805 169.413 157.49 169.406C157.174 169.399 156.865 169.319 156.587 169.171L152.693 166.924C152.175 166.624 152.146 166.158 152.63 165.881C152.915 165.746 153.229 165.679 153.545 165.686C153.861 165.693 154.171 165.774 154.45 165.922L158.344 168.168C158.862 168.468 158.891 168.934 158.402 169.211Z" fill="#1D7185"/>
<path d="M158.402 134.793C158.117 134.657 157.805 134.59 157.49 134.597C157.174 134.604 156.865 134.685 156.587 134.833L152.693 137.079C152.175 137.379 152.146 137.846 152.63 138.122C152.915 138.258 153.229 138.325 153.545 138.318C153.861 138.311 154.171 138.23 154.45 138.082L158.344 135.841C158.862 135.547 158.891 135.075 158.402 134.793Z" fill="#1D7185"/>
<path d="M96.6217 169.211C96.9062 169.346 97.2186 169.413 97.5337 169.406C97.8489 169.399 98.158 169.319 98.4362 169.171L102.33 166.924C102.854 166.624 102.877 166.158 102.394 165.881C102.108 165.746 101.795 165.679 101.479 165.686C101.163 165.693 100.853 165.774 100.573 165.922L96.6851 168.168C96.1609 168.468 96.1378 168.934 96.6217 169.211Z" fill="#1D7185"/>
<path d="M96.6217 134.793C96.9062 134.657 97.2186 134.59 97.5337 134.597C97.8489 134.604 98.158 134.685 98.4362 134.833L102.33 137.079C102.854 137.379 102.877 137.846 102.394 138.122C102.108 138.258 101.795 138.325 101.479 138.318C101.163 138.311 100.853 138.23 100.573 138.082L96.6851 135.841C96.1609 135.547 96.1378 135.075 96.6217 134.793Z" fill="#1D7185"/>
<path d="M127.578 152.696L150.475 166.446L151.887 165.806L131.524 151.768L127.578 152.696Z" fill="#455A64"/>
<path d="M153.2 136.198L150.896 134.798C150.896 134.798 128.281 143.203 123.667 145.864C122.584 146.492 122.048 147.31 122.048 148.128V149.499C122.048 150.317 122.584 151.141 123.667 151.768C124.882 152.385 126.226 152.706 127.589 152.706C128.953 152.706 130.296 152.385 131.512 151.768C136.259 149.862 153.189 137.575 153.189 137.575L153.2 136.198Z" fill="#37474F"/>
<path d="M150.907 134.793C150.907 134.793 128.292 143.197 123.678 145.858C121.512 147.108 121.512 149.136 123.678 150.386C124.894 151.002 126.238 151.324 127.601 151.324C128.964 151.324 130.308 151.002 131.524 150.386C136.27 148.479 153.2 136.192 153.2 136.192L150.907 134.793Z" fill="#455A64"/>
<path d="M128.886 147.396C128.489 147.195 128.051 147.089 127.607 147.089C127.162 147.089 126.724 147.195 126.328 147.396C126.173 147.448 126.039 147.547 125.944 147.679C125.849 147.812 125.797 147.971 125.797 148.134C125.797 148.297 125.849 148.455 125.944 148.588C126.039 148.72 126.173 148.819 126.328 148.871C126.724 149.073 127.162 149.178 127.607 149.178C128.051 149.178 128.489 149.073 128.886 148.871C129.04 148.819 129.174 148.72 129.27 148.588C129.365 148.455 129.416 148.297 129.416 148.134C129.416 147.971 129.365 147.812 129.27 147.679C129.174 147.547 129.04 147.448 128.886 147.396Z" fill="#263238"/>
<path d="M140.875 129.688L138.124 133.356L138.428 133.584L141.179 129.916L140.875 129.688Z" fill="#37474F"/>
<path d="M114.107 129.701L113.802 129.929L116.553 133.598L116.857 133.37L114.107 129.701Z" fill="#37474F"/>
<path d="M138.425 170.236L138.121 170.464L140.871 174.133L141.175 173.905L138.425 170.236Z" fill="#37474F"/>
<path d="M116.558 170.237L113.806 173.905L114.11 174.133L116.862 170.465L116.558 170.237Z" fill="#37474F"/>
<path d="M169.518 142.384L163.5 143.633L163.578 144.005L169.595 142.756L169.518 142.384Z" fill="#37474F"/>
<path d="M163.569 159.996L163.492 160.368L169.511 161.613L169.588 161.241L163.569 159.996Z" fill="#37474F"/>
<path d="M85.4657 142.41L85.3887 142.783L91.4075 144.028L91.4845 143.656L85.4657 142.41Z" fill="#37474F"/>
<path d="M91.4022 159.993L85.384 161.242L85.4613 161.614L91.4794 160.366L91.4022 159.993Z" fill="#37474F"/>
<path d="M69.9857 149.499C68.9321 149.157 67.8976 148.759 66.8867 148.306C63.3213 146.546 59.6507 145.007 55.8959 143.698L61.0168 151.676C63.5226 152.385 66.0399 153.324 68.6954 153.232C69.4369 153.221 70.166 153.04 70.8263 152.702C71.4866 152.365 72.0603 151.879 72.503 151.285C73.2979 150.104 70.7749 149.77 69.9857 149.499Z" fill="#C8856A"/>
<path d="M61.086 173.767L69.9108 139.585C69.3176 139.11 68.7838 138.564 68.321 137.961L67.8774 138.07L57.9811 171.164C57.6989 172.183 59.6459 174.343 60.3889 174.153L60.8383 174.044C60.9006 174.024 60.9565 173.988 61.0001 173.94C61.0437 173.891 61.0734 173.831 61.086 173.767Z" fill="#37474F"/>
<path d="M76.6678 121.503C76.5122 117.713 75.4005 116.112 74.7208 116.319C74.5444 116.383 74.3714 116.456 74.2023 116.538C73.5802 117.846 68.6493 136.527 66.1378 145.34L68.6493 144.58C69.3118 141.699 73.4823 141.014 74.7265 137.967C75.9708 134.919 76.8521 126.152 76.6678 121.503Z" fill="#37474F"/>
<path d="M57.9811 171.164C57.6528 172.345 60.3141 175.058 60.6424 173.877L69.4673 139.7C68.8714 139.226 68.3373 138.678 67.8774 138.07L57.9811 171.164Z" fill="#455A64"/>
<path d="M76.0168 121.791C75.8325 117.131 74.4615 115.639 73.8394 116.941C73.2173 118.243 68.1885 136.711 65.6424 145.536L68.1597 144.77C68.8164 141.889 72.4742 141.371 73.7184 138.324C74.9627 135.277 76.2069 126.452 76.0168 121.791Z" fill="#455A64"/>
<path opacity="0.1" d="M69.0468 139.977L61.2069 170.622C60.6309 172.926 60.4235 174.326 59.3406 173.226C58.0733 171.93 58.3671 171.457 58.3671 171.457C58.55 171.95 58.8414 172.395 59.2196 172.759C59.9108 173.399 60.3717 172.563 60.7231 170.881C61.0744 169.199 69.0468 139.977 69.0468 139.977Z" fill="white"/>
<path d="M76.927 155.374C76.6792 155.167 76.3839 155.023 76.0674 154.957C75.7509 154.89 75.4228 154.903 75.1125 154.994C74.4961 155.177 73.9355 155.512 73.4823 155.968C73.2054 156.273 72.8706 156.519 72.4973 156.694C72.0777 156.807 71.6369 156.817 71.2127 156.722C69.4846 156.486 67.2323 156.722 65.6655 155.904C64.768 155.354 63.9251 154.72 63.1482 154.009L63.0272 153.911C62.1689 153.226 61.3337 152.512 60.5157 151.78C60.556 151.596 60.8325 151.601 61.0226 151.653L55.9016 143.675C52.3072 142.362 49.8245 140.184 42.4339 131.169L30.0894 116.112C30.0894 116.112 34.8475 89.4009 35.3544 84.5046C36.5353 73.3929 36.5814 64.1532 31.6735 60.53C23.5745 62.5691 17.3014 66.5726 15.1528 79.5795C11.9961 98.7212 10.2565 110.109 9.89358 113.404C9.04104 121.077 8.53989 124.107 12.359 128.099C16.0399 131.941 16.1148 131.774 26.8694 140.588C31.639 144.493 33.5168 146.607 38.0618 149.988C42.4224 153.226 43.0618 154.021 44.7841 156.014C46.5065 158.007 47.192 159.43 49.427 161.728C51.061 163.326 52.9038 164.696 54.9051 165.801C56.4629 166.657 58.208 167.116 59.9857 167.137C61.5452 167.298 63.1199 167.224 64.6574 166.918C65.4743 166.826 66.2805 166.656 67.0652 166.411C67.6931 166.158 68.1194 165.53 68.6551 165.132C69.3406 164.62 70.9132 163.98 71.5065 163.404C72.0607 162.709 72.47 161.91 72.7104 161.054C73.7065 160.707 74.5687 160.056 75.1758 159.194C75.5617 158.612 75.8952 157.997 76.1724 157.356C76.2645 157.137 77.0595 155.495 76.927 155.374Z" fill="#C8856A"/>
<path d="M73.1021 160.847C72.3063 161.354 71.4137 161.689 70.4811 161.832C69.5596 162.006 68.6287 162.128 67.6931 162.195C67.4627 162.195 67.2611 162.247 66.9673 162.247C66.7216 162.236 66.4771 162.207 66.2357 162.16C65.7722 162.073 65.3143 161.957 64.8648 161.814C63.973 161.541 63.1011 161.206 62.2553 160.812L64.9742 161.417C65.4293 161.503 65.8786 161.613 66.3221 161.665C66.5395 161.7 66.7588 161.721 66.9788 161.728C67.1516 161.728 67.4108 161.688 67.6412 161.665C68.5744 161.59 69.4961 161.526 70.412 161.434C71.3305 161.357 72.2349 161.159 73.1021 160.847Z" fill="#AF6152"/>
<path d="M69.692 164.522C68.9924 164.951 68.2307 165.27 67.4339 165.467C66.635 165.68 65.8168 165.813 64.9915 165.864C64.154 165.846 63.322 165.724 62.5146 165.501C61.7207 165.315 60.9396 165.078 60.1758 164.793C60.9938 164.873 61.7945 164.994 62.601 165.104C63.3804 165.232 64.1674 165.309 64.957 165.334C66.5616 165.25 68.1508 164.977 69.692 164.522Z" fill="#AF6152"/>
<path d="M33.465 59.2512C25.4005 61.4055 19.8936 63.9804 17.1805 71.2039C14.4673 78.4274 11.2876 99.7869 11.2876 99.7869C11.2876 99.7869 12.9696 103.508 21.207 105.38C29.4443 107.252 32.4339 106.313 32.4339 106.313C32.4339 106.313 35.2392 90.8813 36.1782 85.7777C37.1171 80.674 40.389 67.6728 33.465 59.2512Z" fill="#455A64"/>
<path opacity="0.2" d="M194.225 148.041C199.041 150.709 206.835 150.709 211.645 148.041C216.455 145.374 216.455 141.048 211.645 138.381C206.835 135.714 199.041 135.709 194.225 138.381C189.41 141.054 189.421 145.38 194.225 148.041Z" fill="#1D7185"/>
<path d="M192.255 113.266L193.206 138.249C193.223 138.665 193.321 139.074 193.494 139.453C194.056 140.548 194.954 141.434 196.057 141.982C199.853 144.107 206.017 144.107 209.819 141.982C210.919 141.435 211.814 140.548 212.371 139.453C212.521 139.121 212.617 138.767 212.653 138.404C212.659 138.299 212.659 138.193 212.653 138.088L213.592 113.318C214.074 112.643 214.352 111.843 214.392 111.014L213.24 141.815V142.149C213.125 143.583 212.117 145 210.228 146.094C206.195 148.399 199.652 148.399 195.619 146.094C193.655 144.942 192.647 143.474 192.601 141.982V141.878L191.449 111.014C191.499 111.826 191.779 112.607 192.255 113.266Z" fill="#F0F0F0"/>
<path d="M194.825 115.524C199.3 118.111 206.57 118.111 211.051 115.524C212.059 114.977 212.931 114.212 213.603 113.283L212.664 138.053V138.37C212.628 138.732 212.533 139.086 212.382 139.418C211.825 140.513 210.93 141.4 209.83 141.947C206.028 144.073 199.865 144.073 196.069 141.947C194.966 141.4 194.068 140.513 193.505 139.418C193.333 139.039 193.235 138.63 193.217 138.214L192.267 113.249C192.939 114.189 193.813 114.967 194.825 115.524Z" fill="#E6E6E6"/>
<path d="M212.659 138.312C212.578 139.643 211.627 140.956 209.819 141.97C206.017 144.096 199.853 144.096 196.051 141.97C194.243 140.956 193.292 139.666 193.212 138.312L192.405 117.396C192.319 115.841 193.344 114.268 195.487 113.082C199.6 110.778 206.27 110.778 210.383 113.082C212.526 114.268 213.551 115.841 213.465 117.396L212.659 138.312Z" fill="#1D7185"/>
<path opacity="0.45" d="M212.659 138.312C212.578 139.643 211.627 140.956 209.819 141.97C206.017 144.096 199.853 144.096 196.051 141.97C194.243 140.956 193.292 139.666 193.212 138.312L192.405 117.396C192.319 115.841 193.344 114.268 195.487 113.082C199.6 110.778 206.27 110.778 210.383 113.082C212.526 114.268 213.551 115.841 213.465 117.396L212.659 138.312Z" fill="white"/>
<path opacity="0.3" d="M209.387 141.532C205.815 143.422 200.02 143.422 196.449 141.532C192.878 139.643 192.878 136.59 196.449 134.7C200.02 132.811 205.815 132.817 209.387 134.7C212.958 136.584 212.975 139.649 209.387 141.532Z" fill="#1D7185"/>
<path opacity="0.7" d="M210.383 121.342C206.27 123.646 199.6 123.646 195.487 121.342C191.374 119.038 191.374 115.363 195.487 113.082C199.6 110.801 206.27 110.778 210.383 113.082C214.496 115.386 214.496 119.061 210.383 121.342Z" fill="white"/>
<path opacity="0.2" d="M195.487 121.348C199.053 123.324 204.536 123.583 208.615 122.137C202.935 123.122 197.601 120.478 198.068 117.068C198.068 116.993 198.068 116.924 198.108 116.849C196.96 116.553 195.856 116.108 194.824 115.524C194.359 115.257 193.916 114.952 193.5 114.614C191.53 116.797 192.204 119.522 195.487 121.348Z" fill="#1D7185"/>
<path d="M191.46 110.956V111.002C191.504 111.816 191.777 112.602 192.25 113.266C192.927 114.201 193.804 114.973 194.819 115.524C199.295 118.111 206.564 118.111 211.046 115.524C212.053 114.977 212.925 114.212 213.598 113.283C214.08 112.608 214.358 111.808 214.398 110.979C214.473 109.251 213.356 107.465 211.046 106.135C206.564 103.543 199.295 103.543 194.819 106.135C192.532 107.477 191.409 109.222 191.46 110.956ZM195.337 106.624C199.536 104.32 206.339 104.32 210.533 106.624C214.727 108.929 214.732 112.725 210.533 115.058C206.334 117.391 199.536 117.362 195.337 115.058C191.138 112.753 191.138 108.952 195.337 106.624Z" fill="#FAFAFA"/>
<path d="M195.337 115.058C199.536 117.362 206.339 117.362 210.533 115.058C214.727 112.753 214.732 108.952 210.533 106.624C206.334 104.297 199.536 104.32 195.337 106.624C191.138 108.929 191.138 112.725 195.337 115.058Z" fill="#E6E6E6"/>
<path d="M211.892 114.136C211.47 114.486 211.014 114.794 210.533 115.058C206.339 117.362 199.536 117.362 195.337 115.058C194.856 114.794 194.401 114.486 193.978 114.136C194.44 113.729 194.946 113.375 195.487 113.082C199.6 110.778 206.27 110.778 210.383 113.082C210.924 113.375 211.431 113.729 211.892 114.136Z" fill="#1D7185"/>
<path opacity="0.65" d="M211.892 114.136C211.47 114.486 211.014 114.794 210.533 115.058C206.339 117.362 199.536 117.362 195.337 115.058C194.856 114.794 194.401 114.486 193.978 114.136C194.44 113.729 194.946 113.375 195.487 113.082C199.6 110.778 206.27 110.778 210.383 113.082C210.924 113.375 211.431 113.729 211.892 114.136Z" fill="white"/>
<path opacity="0.2" d="M210.383 113.082C210.257 113.007 210.124 112.938 209.992 112.874C209.784 112.771 209.565 112.673 209.346 112.581C208.125 112.075 206.843 111.731 205.533 111.555C205.17 111.509 204.801 111.463 204.433 111.44C204.064 111.417 203.799 111.394 203.477 111.388H202.952C202.612 111.388 202.278 111.388 201.944 111.388C200.787 111.447 199.639 111.621 198.517 111.907C197.467 112.16 196.455 112.547 195.504 113.059C195.36 113.134 195.228 113.214 195.095 113.295L195.02 113.347L194.704 113.554L194.652 113.589L194.335 113.831L194.012 114.101C194.436 114.449 194.891 114.758 195.372 115.023C196.313 115.528 197.314 115.915 198.35 116.175C199.634 113.312 205.51 111.624 210.383 113.082Z" fill="#1D7185"/>
<path d="M193.258 139.695L193.321 141.607V141.74C193.448 144.579 197.705 146.855 202.935 146.855C208.166 146.855 212.394 144.591 212.549 141.768V141.601L212.607 139.677C212.094 142.344 207.952 144.424 202.924 144.424C197.895 144.424 193.788 142.356 193.258 139.695Z" fill="#FAFAFA"/>
<path opacity="0.2" d="M209.433 142.166C205.614 144.084 199.732 144.027 196.051 141.964C194.243 140.95 193.292 139.66 193.212 138.312L192.417 117.817H192.457C192.692 118.829 193.262 119.733 194.076 120.38C194.433 128.088 194.496 135.541 196.674 138.111C198.759 140.553 204.202 144.101 209.433 142.166Z" fill="#1D7185"/>
<path d="M124.231 148.577L124.387 151.135C128.424 151.738 132.499 152.052 136.581 152.074C144.404 152.218 178.448 153.491 180.066 152.437C182.653 150.76 179.49 146.843 179.49 146.843L124.231 148.577Z" fill="#FFBDA7"/>
<path d="M166.386 123.272C167.727 122.978 169.121 123.036 170.433 123.44C171.745 123.843 172.93 124.579 173.874 125.576C174.594 126.308 175.187 127.16 175.959 127.834C176.706 128.438 177.513 128.963 178.367 129.401C180.625 130.674 182.975 132.321 183.551 135.029C183.824 136.606 184.209 138.161 184.704 139.683C184.969 140.392 185.28 141.066 185.568 141.768C186.017 142.942 186.294 144.174 186.391 145.426C186.593 147.201 186.205 148.993 185.285 150.524C184.018 152.425 180.844 153.906 178.678 152.667V148.618C178.102 147.079 176.46 145.541 175.504 144.199L169.888 136.388C169.444 135.772 162.82 126.365 162.728 126.423C162.728 126.4 164.248 123.779 166.386 123.272Z" fill="#F0997A"/>
<path opacity="0.1" d="M180.942 145.536C181.115 143.681 181.576 142.12 180.7 140.351C180.119 139.27 179.357 138.296 178.448 137.471C177.353 136.411 176.04 135.622 175.216 134.326C174.773 133.629 174.548 132.817 174.145 132.097C173.281 130.553 171.697 129.556 170.112 128.79C168.69 128.105 167.048 127.368 166.558 125.864C166.427 125.389 166.425 124.887 166.554 124.41C166.682 123.934 166.937 123.501 167.29 123.157C166.996 123.191 166.714 123.237 166.397 123.301C164.26 123.785 162.739 126.406 162.739 126.406C162.831 126.348 169.456 135.755 169.899 136.371L175.516 144.182C176.472 145.524 178.125 147.062 178.69 148.6V152.684C180.562 153.756 183.189 152.794 184.686 151.279C181.829 151.498 180.706 148.041 180.942 145.536Z" fill="black"/>
<path d="M162.728 126.4C165.943 128.22 168.902 130.461 171.524 133.065L171.633 133.174C171.754 133.295 171.875 133.41 171.979 133.537C176.241 138.013 178.667 143.157 178.667 148.618H124.237L128.096 146.394L129.519 145.57C129.577 145.536 129.64 145.507 129.698 145.467L162.728 126.4Z" fill="#FFBDA7"/>
<path opacity="0.3" d="M162.728 126.4C165.943 128.22 168.902 130.461 171.524 133.065L171.633 133.174C171.754 133.295 171.875 133.41 171.979 133.537C176.241 138.013 178.667 143.157 178.667 148.618H124.237L128.096 146.394L129.519 145.57C129.577 145.536 129.64 145.507 129.698 145.467L162.728 126.4Z" fill="white"/>
<path d="M130.781 149.343C131.216 149.463 131.641 149.615 132.054 149.798C133.154 150.276 134.254 150.95 135.51 150.899C136.766 150.847 137.768 150.19 138.88 149.747C140.688 149.035 142.682 148.943 144.548 149.487C145.844 149.868 147.031 150.541 148.298 150.991C149.565 151.44 151.017 151.642 152.238 151.077C153.459 150.513 154.248 149.315 155.464 148.773C157.117 148.053 159.012 148.773 160.648 149.528C162.284 150.282 164.104 151.118 165.833 150.599C167.094 150.219 168.137 149.147 169.456 149.073C171.08 148.975 172.376 150.455 173.021 151.953C173.379 152.765 173.949 153.825 174.813 153.6C175.516 153.416 175.689 152.506 175.677 151.774C175.666 151.043 175.706 150.156 176.357 149.816C177.008 149.476 178.085 149.902 178.471 149.24C178.577 149.003 178.607 148.739 178.557 148.485C178.385 147.417 178.095 146.372 177.693 145.369C177.028 143.342 176.204 141.372 175.228 139.476C173.979 137.308 172.449 135.315 170.677 133.548C169.303 132.062 167.742 130.759 166.034 129.672C165.288 129.171 164.44 128.842 163.551 128.71C162.773 128.662 161.992 128.758 161.247 128.992C158.258 129.793 155.487 131.227 152.751 132.696C151.8 133.209 150.85 133.721 149.899 134.245C145.493 136.665 141.138 139.182 136.806 141.734C134.632 143.009 132.468 144.29 130.314 145.576L128.695 146.544C128.263 146.797 127.82 146.907 127.394 147.149C126.72 147.54 125.971 148.52 125.124 148.52C126.213 148.52 127.238 149.021 128.321 149.124C129.007 149.194 129.704 149.124 130.383 149.222L130.781 149.343Z" fill="#FFD2C3"/>
<path opacity="0.1" d="M164.991 137.218C166.46 136.371 166.927 135.161 166.391 134.09C166.07 133.506 165.583 133.031 164.991 132.725C163.785 132.111 162.451 131.791 161.097 131.791C159.744 131.791 158.41 132.111 157.203 132.725C156.178 133.301 155.637 134.084 155.596 134.856C155.556 135.628 156.074 136.584 157.203 137.218C158.411 137.827 159.745 138.145 161.097 138.145C162.45 138.145 163.784 137.827 164.991 137.218ZM153.69 139.7C152.391 139.042 150.955 138.698 149.499 138.698C148.043 138.698 146.607 139.042 145.308 139.7C144.208 140.334 143.626 141.164 143.58 142.005C143.534 142.846 144.099 143.848 145.308 144.545C146.608 145.201 148.043 145.543 149.499 145.543C150.955 145.543 152.39 145.201 153.69 144.545C155.268 143.635 155.775 142.333 155.193 141.181C154.85 140.549 154.327 140.034 153.69 139.7ZM170.216 141.129C169.122 140.799 167.983 140.64 166.841 140.657C162.998 140.691 159.928 142.512 159.986 144.729C160.015 145.783 160.746 146.74 161.927 147.442C163.492 148.308 165.261 148.736 167.048 148.681C170.89 148.646 173.96 146.826 173.903 144.608C173.845 143.07 172.365 141.763 170.216 141.129ZM137.232 142.281L129.698 146.624C129.64 146.659 128.338 146.221 128.281 146.262L127.48 146.717C127.676 146.884 128.69 147.759 128.932 147.903C130.377 148.708 132.013 149.106 133.667 149.055C137.227 149.027 140.066 147.327 140.003 145.288C139.98 144.038 138.886 142.944 137.232 142.281Z" fill="black"/>
<path d="M166.823 139.447C167.966 139.43 169.105 139.589 170.199 139.919C172.365 140.582 173.845 141.884 173.886 143.376C173.943 145.588 170.873 147.408 167.031 147.442C165.244 147.499 163.475 147.073 161.91 146.21C160.729 145.507 159.997 144.551 159.968 143.491C159.917 141.302 162.981 139.476 166.823 139.447Z" fill="#B16668"/>
<path opacity="0.3" d="M167.071 140.685C166.865 140.637 166.655 140.606 166.443 140.593C165.984 140.532 165.516 140.568 165.072 140.702C164.628 140.835 164.218 141.061 163.868 141.365C163.822 141.401 163.786 141.448 163.762 141.501C163.738 141.554 163.727 141.612 163.73 141.67C163.73 141.814 163.92 141.878 164.064 141.912C164.821 142.086 165.606 142.098 166.368 141.947C166.737 141.878 167.52 141.607 167.48 141.1C167.463 140.87 167.284 140.755 167.071 140.685ZM168.909 141.008C169.235 141.106 169.575 141.152 169.917 141.146C170.016 141.149 170.115 141.127 170.205 141.083C170.447 140.939 170.326 140.806 170.147 140.714C170.046 140.659 169.937 140.619 169.824 140.593C169.513 140.534 169.193 140.554 168.891 140.651C168.805 140.651 168.701 140.726 168.695 140.818C168.69 140.91 168.805 140.979 168.909 141.008ZM171.754 142.16C171.017 141.503 170.026 141.745 169.191 142.114C168.924 142.22 168.691 142.398 168.517 142.627C168.466 142.694 168.441 142.778 168.448 142.863C168.457 142.928 168.488 142.989 168.534 143.036C168.783 143.27 169.114 143.398 169.456 143.393C170.097 143.474 170.748 143.421 171.368 143.237C171.526 143.193 171.673 143.116 171.8 143.013C171.862 142.96 171.912 142.895 171.947 142.821C171.981 142.748 172 142.668 172.002 142.586C171.992 142.501 171.964 142.419 171.922 142.345C171.879 142.271 171.822 142.206 171.754 142.154V142.16ZM165.856 142.736C165.677 142.736 164.951 142.863 164.847 143.111C164.813 143.191 164.847 143.283 164.98 143.393C165.241 143.523 165.529 143.588 165.821 143.583C166.142 143.624 166.468 143.572 166.76 143.433C166.852 143.387 166.944 143.312 166.944 143.208C166.94 143.169 166.927 143.131 166.906 143.097C166.885 143.063 166.857 143.034 166.823 143.013C166.542 142.812 166.2 142.716 165.856 142.742V142.736ZM163.488 142.736C162.785 142.275 161.76 142.615 161.121 143.047C161.011 143.113 160.917 143.202 160.844 143.306C160.81 143.36 160.788 143.42 160.781 143.483C160.774 143.546 160.782 143.61 160.804 143.669C160.879 143.789 160.996 143.878 161.132 143.917C161.833 144.185 162.608 144.185 163.309 143.917C163.498 143.862 163.662 143.741 163.77 143.577C163.831 143.428 163.836 143.262 163.784 143.11C163.732 142.957 163.627 142.829 163.488 142.748V142.736ZM165.516 144.533C165.314 144.467 165.099 144.447 164.889 144.476C164.678 144.505 164.477 144.582 164.3 144.7C164.202 144.77 164.104 144.885 164.139 145C164.165 145.064 164.211 145.116 164.271 145.15C164.574 145.324 164.919 145.409 165.268 145.397C165.514 145.421 165.761 145.375 165.982 145.265C166.028 145.241 166.066 145.205 166.092 145.161C166.155 145.046 166.092 144.908 165.982 144.816C165.85 144.691 165.69 144.598 165.516 144.545V144.533ZM170.7 144.7C169.727 144.286 168.396 144.274 167.659 145.115C167.589 145.188 167.539 145.277 167.515 145.374C167.517 145.468 167.547 145.558 167.602 145.634C167.656 145.71 167.732 145.768 167.82 145.801C168.023 145.884 168.24 145.931 168.459 145.939C169.185 145.985 169.913 145.881 170.596 145.634C170.726 145.594 170.848 145.529 170.953 145.444C171.005 145.401 171.045 145.347 171.071 145.286C171.097 145.225 171.108 145.158 171.103 145.092C171.046 144.908 170.85 144.787 170.671 144.712L170.7 144.7Z" fill="#FFBDA7"/>
<path d="M164.991 131.544C165.583 131.85 166.07 132.325 166.391 132.909C166.927 133.98 166.46 135.184 164.991 136.031C163.785 136.645 162.451 136.965 161.097 136.965C159.744 136.965 158.41 136.645 157.203 136.031C156.051 135.386 155.539 134.528 155.596 133.675C155.654 132.823 156.172 132.131 157.203 131.544C158.41 130.93 159.744 130.61 161.097 130.61C162.451 130.61 163.785 130.93 164.991 131.544Z" fill="#B16668"/>
<path opacity="0.3" d="M161.098 132.212C161.645 132.384 162.221 132.439 162.791 132.373C162.914 132.375 163.036 132.349 163.148 132.298C163.202 132.27 163.247 132.227 163.277 132.174C163.306 132.12 163.32 132.06 163.315 131.999C163.282 131.9 163.214 131.817 163.125 131.763C162.872 131.597 162.581 131.497 162.279 131.472C161.978 131.446 161.674 131.497 161.397 131.619C161.228 131.68 161.087 131.801 161 131.958C160.988 131.983 160.982 132.009 160.982 132.036C160.982 132.063 160.988 132.09 161 132.114C161.02 132.157 161.055 132.191 161.098 132.212ZM159.271 133.329C160.303 132.92 159.243 132.097 158.592 132.062C158.2 132.062 156.368 132.569 157.111 133.128C157.21 133.194 157.319 133.243 157.434 133.272C158.023 133.497 158.67 133.518 159.271 133.329ZM160.498 134.205C161.007 134.359 161.534 134.438 162.065 134.441C162.259 134.456 162.454 134.439 162.641 134.389C162.819 134.33 162.973 134.217 163.085 134.067C163.151 133.988 163.195 133.893 163.212 133.792C163.23 133.691 163.219 133.587 163.183 133.491C163.112 133.369 163.006 133.272 162.877 133.214C162.143 132.843 161.298 132.757 160.504 132.972C160.344 133.022 160.196 133.107 160.072 133.22C160.01 133.276 159.962 133.346 159.932 133.424C159.902 133.502 159.891 133.586 159.899 133.669C159.951 133.946 160.251 134.113 160.522 134.217L160.498 134.205ZM165.475 133.162C165.243 132.929 164.929 132.793 164.6 132.782C164.266 132.742 163.955 132.782 163.909 133.047C163.909 133.151 163.983 133.243 164.07 133.301C164.363 133.491 164.7 133.604 165.049 133.629C165.124 133.643 165.201 133.638 165.273 133.615C165.346 133.592 165.411 133.551 165.464 133.497C165.499 133.449 165.521 133.393 165.527 133.334C165.533 133.275 165.523 133.216 165.498 133.162H165.475ZM157.543 134.793C157.527 134.89 157.538 134.991 157.576 135.082C157.613 135.174 157.676 135.253 157.757 135.311C158.133 135.617 158.585 135.816 159.064 135.887C159.51 135.99 159.971 136.01 160.424 135.945C160.642 135.904 160.884 135.801 160.93 135.582C160.935 135.505 160.922 135.428 160.892 135.357C160.862 135.286 160.816 135.223 160.758 135.173C160.349 134.793 157.843 133.969 157.543 134.793ZM164.07 135.006C163.78 134.867 163.462 134.8 163.141 134.81C162.82 134.82 162.507 134.907 162.227 135.063C162.14 135.109 162.048 135.167 162.031 135.259C162.013 135.351 162.157 135.513 162.296 135.564C162.451 135.623 162.614 135.662 162.78 135.68C163.079 135.708 164.727 135.49 164.076 135L164.07 135.006Z" fill="#FFBDA7"/>
<path d="M153.69 138.52C154.326 138.848 154.85 139.36 155.193 139.988C155.769 141.141 155.268 142.442 153.69 143.353C152.39 144.009 150.955 144.351 149.499 144.351C148.043 144.351 146.608 144.009 145.308 143.353C144.099 142.65 143.523 141.728 143.58 140.812C143.638 139.896 144.208 139.153 145.308 138.508C146.608 137.851 148.044 137.51 149.5 137.512C150.957 137.514 152.392 137.859 153.69 138.52Z" fill="#B16668"/>
<path opacity="0.3" d="M153.983 139.787C153.75 139.462 153.431 139.209 153.061 139.056C152.692 138.904 152.287 138.857 151.892 138.923C151.665 138.94 151.449 139.028 151.276 139.176C151.192 139.252 151.136 139.354 151.116 139.466C151.097 139.577 151.114 139.692 151.167 139.793C151.245 139.897 151.351 139.979 151.472 140.029C151.95 140.288 152.44 140.53 152.929 140.76C153.128 140.868 153.345 140.938 153.569 140.968C153.678 140.978 153.789 140.96 153.89 140.916C153.991 140.872 154.078 140.802 154.145 140.714C154.211 140.561 154.231 140.391 154.203 140.227C154.174 140.062 154.098 139.909 153.983 139.787ZM151.103 140.536C150.61 140.407 150.087 140.464 149.634 140.697C149.433 140.801 149.225 140.997 149.283 141.215C149.313 141.292 149.361 141.36 149.422 141.415C149.483 141.47 149.555 141.51 149.634 141.532C149.924 141.653 150.232 141.723 150.545 141.74C150.816 141.771 151.09 141.711 151.322 141.567C151.783 141.244 151.576 140.703 151.103 140.553V140.536ZM147.941 140.259C148.375 140.215 148.787 140.047 149.127 139.775C150.055 138.877 147.762 138.393 147.186 138.439C146.61 138.485 144.594 139.32 145.182 140.167C145.263 140.258 145.363 140.33 145.476 140.377C145.589 140.424 145.711 140.444 145.833 140.438C146.54 140.473 147.249 140.413 147.941 140.259ZM149.807 138.836C150.028 138.992 150.301 139.054 150.568 139.009C150.626 139.005 150.683 138.988 150.734 138.96C150.786 138.932 150.831 138.894 150.867 138.848C150.907 138.768 150.916 138.677 150.893 138.59C150.869 138.504 150.815 138.43 150.74 138.381C150.586 138.289 150.413 138.234 150.233 138.22C149.888 138.18 149.531 138.26 149.657 138.641C149.688 138.715 149.74 138.78 149.807 138.825V138.836ZM147.618 141.319C147.112 141.202 146.583 141.23 146.092 141.4C145.935 141.431 145.787 141.498 145.66 141.596C145.597 141.644 145.55 141.71 145.523 141.784C145.497 141.859 145.492 141.939 145.51 142.016C145.552 142.1 145.613 142.174 145.688 142.231C145.762 142.288 145.85 142.327 145.942 142.344C146.5 142.523 147.084 142.609 147.67 142.598C147.793 142.615 147.918 142.6 148.034 142.556C148.15 142.512 148.252 142.439 148.333 142.344C148.557 141.924 147.964 141.452 147.618 141.319ZM150.694 142.679C150.193 142.316 149.306 142.563 148.816 142.823C148.684 142.892 148.54 143.001 148.546 143.151C148.551 143.301 148.701 143.393 148.834 143.445C149.29 143.604 149.78 143.645 150.257 143.566C150.516 143.537 150.833 143.456 150.902 143.214C150.926 143.115 150.919 143.01 150.882 142.914C150.845 142.818 150.78 142.736 150.694 142.679ZM153.2 141.768C152.797 141.694 152.25 142.085 151.956 142.31C151.904 142.35 151.846 142.408 151.852 142.471C151.858 142.535 151.967 142.592 152.06 142.604C152.337 142.634 152.617 142.619 152.889 142.558C153.2 142.489 153.776 141.878 153.2 141.768Z" fill="#FFBDA7"/>
<path d="M129.519 145.547L128.281 146.267C128.484 146.437 128.702 146.59 128.932 146.722C130.377 147.527 132.013 147.925 133.667 147.874C137.227 147.846 140.066 146.146 140.003 144.107C139.968 142.857 138.851 141.768 137.221 141.112L129.686 145.449C129.64 145.484 129.577 145.513 129.519 145.547Z" fill="#B16668"/>
<g opacity="0.3">
<path d="M134.041 146.642C134.845 146.778 135.671 146.672 136.414 146.336C136.754 146.181 137.29 145.864 137.019 145.455C136.916 145.337 136.782 145.25 136.633 145.202C136.484 145.155 136.325 145.148 136.172 145.184C135.331 145.295 134.516 145.555 133.765 145.95C133.669 145.991 133.591 146.064 133.546 146.158C133.527 146.222 133.529 146.291 133.552 146.354C133.575 146.417 133.617 146.472 133.672 146.509C133.783 146.583 133.909 146.628 134.041 146.642Z" fill="#FFBDA7"/>
<path d="M135.867 142.944C135.775 143.009 135.7 143.095 135.648 143.196C135.596 143.296 135.568 143.407 135.568 143.52C135.589 143.628 135.634 143.73 135.7 143.819C135.766 143.907 135.85 143.98 135.948 144.032C136.226 144.212 136.539 144.331 136.867 144.382C137.194 144.433 137.529 144.414 137.849 144.326C138.091 144.278 138.313 144.159 138.487 143.983C138.66 143.808 138.777 143.584 138.822 143.341C138.829 143.253 138.815 143.164 138.782 143.082C138.722 142.977 138.637 142.89 138.534 142.828C138.137 142.555 137.663 142.419 137.181 142.44C136.7 142.46 136.239 142.637 135.867 142.944Z" fill="#FFBDA7"/>
<path d="M129.98 146.486C130.606 146.597 131.248 146.571 131.864 146.411C132.076 146.372 132.274 146.278 132.44 146.141C132.526 146.074 132.592 145.985 132.629 145.883C132.667 145.781 132.675 145.671 132.653 145.565C132.555 145.109 131.887 144.729 131.224 144.556L129.715 145.426C129.657 145.467 129.594 145.495 129.536 145.53L129.254 145.697C129.225 146.071 129.439 146.388 129.98 146.486Z" fill="#FFBDA7"/>
<path d="M134.058 143.906C133.782 143.906 133.004 143.98 133.045 144.424C133.045 144.568 133.217 144.649 133.361 144.683C133.738 144.782 134.131 144.796 134.513 144.724C134.796 144.672 135.124 144.459 134.917 144.147C134.831 144.045 134.709 143.979 134.577 143.963C134.407 143.922 134.233 143.902 134.058 143.906Z" fill="#FFBDA7"/>
</g>
<path d="M128.125 10.3687L103.58 24.568C103.096 24.8445 102.705 25.5242 102.705 26.8376V56.0657C102.718 56.3714 102.806 56.6693 102.959 56.934C103.112 57.1988 103.328 57.4226 103.586 57.5864L107.042 59.568C107.315 59.7044 107.616 59.7754 107.921 59.7754C108.226 59.7754 108.526 59.7044 108.799 59.568L133.35 45.3629C133.605 45.1972 133.817 44.9736 133.969 44.7104C134.121 44.4471 134.209 44.1516 134.225 43.8479V13.8537C134.209 13.5508 134.121 13.2561 133.969 12.9938C133.817 12.7314 133.605 12.5089 133.35 12.3445L129.894 10.3687C129.62 10.2291 129.317 10.1563 129.009 10.1563C128.702 10.1563 128.399 10.2291 128.125 10.3687Z" fill="#1D7185"/>
<path opacity="0.15" d="M108.828 59.5622C108.554 59.6956 108.254 59.765 107.949 59.765C107.645 59.765 107.345 59.6956 107.071 59.5622L103.615 57.5807C103.354 57.4191 103.138 57.1958 102.984 56.9305C102.83 56.6653 102.744 56.3663 102.733 56.0599V26.8376C102.693 26.2763 102.8 25.7143 103.045 25.2074L108.229 28.197C108.06 28.4537 107.97 28.754 107.97 29.0611V59.0553C107.952 59.5795 108.315 59.856 108.828 59.5622Z" fill="black"/>
<path d="M100.303 48.3295C99.7554 48.0011 95.5618 45.6336 95.4236 45.5587C95.3209 45.4955 95.2335 45.4103 95.1677 45.3093C95.1018 45.2082 95.0591 45.0939 95.0426 44.9745C95.026 44.855 95.0361 44.7334 95.0721 44.6183C95.1081 44.5032 95.1691 44.3975 95.2508 44.3087L102.705 35.7661L107.952 38.773L100.159 47.0968C100.08 47.1842 100.022 47.2873 99.9864 47.3991C99.9511 47.511 99.9398 47.629 99.9534 47.7455C99.967 47.862 100.005 47.9743 100.065 48.0749C100.126 48.1756 100.206 48.2624 100.303 48.3295Z" fill="#1D7185"/>
<path d="M133.35 13.3468L108.811 27.5461C108.556 27.7118 108.343 27.9353 108.191 28.1986C108.039 28.4619 107.951 28.7574 107.935 29.061V38.773L100.136 47.0968C100.027 47.2028 99.9517 47.3381 99.9187 47.4862C99.8856 47.6343 99.8963 47.7888 99.9493 47.9309C100.002 48.0731 100.096 48.1968 100.218 48.2869C100.34 48.3771 100.485 48.4299 100.637 48.4389L107.935 47.909V59.0553C107.935 59.6313 108.327 59.8387 108.811 59.5622L133.35 45.3629C133.605 45.1972 133.817 44.9736 133.969 44.7104C134.121 44.4471 134.209 44.1516 134.225 43.8479V13.8537C134.243 13.2949 133.851 13.0703 133.35 13.3468Z" fill="#1D7185"/>
<path opacity="0.35" d="M133.35 13.3468L108.811 27.5461C108.556 27.7118 108.343 27.9353 108.191 28.1986C108.039 28.4619 107.951 28.7574 107.935 29.061V38.773L100.136 47.0968C100.027 47.2028 99.9517 47.3381 99.9187 47.4862C99.8856 47.6343 99.8963 47.7888 99.9493 47.9309C100.002 48.0731 100.096 48.1968 100.218 48.2869C100.34 48.3771 100.485 48.4299 100.637 48.4389L107.935 47.909V59.0553C107.935 59.6313 108.327 59.8387 108.811 59.5622L133.35 45.3629C133.605 45.1972 133.817 44.9736 133.969 44.7104C134.121 44.4471 134.209 44.1516 134.225 43.8479V13.8537C134.243 13.2949 133.851 13.0703 133.35 13.3468Z" fill="white"/>
<path d="M112.791 38.3756C112.799 36.7899 113.128 35.2223 113.759 33.7673C114.327 32.2501 115.346 30.9433 116.679 30.023C118.678 28.871 120.349 31.2557 120.614 34.0898C120.85 30.962 122.48 26.6014 124.479 25.4493C125.631 24.7638 126.697 24.9309 127.422 25.7546C128.154 26.7526 128.511 27.9761 128.43 29.2108C128.459 34.0034 125.591 38.3352 123.194 42.8974L120.608 47.3041L118.108 45.8756C115.706 44.1302 112.814 43.1682 112.791 38.3756Z" fill="#FAFAFA"/>
</svg>
